<?xml version="1.0" encoding="UTF-8" standalone="no"?>
<svg
   width="1624"
   height="179"
   viewBox="0 0 1624 179"
   version="1.1"
   id="svg4"
   sodipodi:docname="logo (Standard).svg"
   inkscape:version="1.4.3 (0d15f75, 2025-12-25)"
   xmlns:inkscape="http://www.inkscape.org/namespaces/inkscape"
   xmlns:sodipodi="http://sodipodi.sourceforge.net/DTD/sodipodi-0.dtd"
   xmlns="http://www.w3.org/2000/svg"
   xmlns:svg="http://www.w3.org/2000/svg">
  <defs
     id="defs4">
    <filter
       inkscape:label="Molten Metal"
       inkscape:menu="Bevels"
       inkscape:menu-tooltip="Melting parts of object together, with a glossy bevel and a glow"
       style="color-interpolation-filters:sRGB"
       id="filter37"
       x="-0.042995174"
       y="-0.15227342"
       width="1.0859903"
       height="1.3045468">
      <feGaussianBlur
         stdDeviation="3"
         result="result1"
         id="feGaussianBlur33" />
      <feColorMatrix
         result="result10"
         values="1 0 0 0 0 0 1 0 0 0 0 0 1 0 0 0 0 0 5 -4 "
         id="feColorMatrix33" />
      <feComposite
         operator="atop"
         in="result10"
         in2="result10"
         result="result8"
         id="feComposite33" />
      <feComposite
         operator="in"
         result="fbSourceGraphic"
         in="result1"
         in2="result8"
         id="feComposite34" />
      <feGaussianBlur
         result="result0"
         in="fbSourceGraphic"
         stdDeviation="4"
         id="feGaussianBlur34" />
      <feSpecularLighting
         specularExponent="55"
         specularConstant="2.5"
         surfaceScale="2"
         lighting-color="#ffffff"
         result="result1"
         in="result0"
         id="feSpecularLighting34">
        <feDistantLight
           azimuth="225"
           elevation="60"
           id="feDistantLight34" />
      </feSpecularLighting>
      <feComposite
         operator="in"
         result="result2"
         in="result1"
         in2="fbSourceGraphic"
         id="feComposite35" />
      <feComposite
         k3="1"
         k2="1"
         operator="arithmetic"
         result="result4"
         in="fbSourceGraphic"
         in2="result2"
         id="feComposite36"
         k1="0"
         k4="0" />
      <feGaussianBlur
         result="result20"
         in="result4"
         stdDeviation="1"
         id="feGaussianBlur36" />
      <feComposite
         operator="in"
         in="result20"
         in2="result4"
         result="result9"
         id="feComposite37" />
      <feBlend
         mode="multiply"
         in="result9"
         in2="result9"
         id="feBlend37" />
    </filter>
    <filter
       inkscape:label="Molten Metal"
       inkscape:menu="Bevels"
       inkscape:menu-tooltip="Melting parts of object together, with a glossy bevel and a glow"
       style="color-interpolation-filters:sRGB"
       id="filter113"
       x="-0.10837993"
       y="-0.075134872"
       width="1.2167599"
       height="1.1502697">
      <feGaussianBlur
         stdDeviation="3"
         result="result1"
         id="feGaussianBlur108" />
      <feColorMatrix
         result="result10"
         values="1 0 0 0 0 0 1 0 0 0 0 0 1 0 0 0 0 0 5 -4 "
         id="feColorMatrix108" />
      <feComposite
         operator="atop"
         in="result10"
         in2="result10"
         result="result8"
         id="feComposite109" />
      <feComposite
         operator="in"
         result="fbSourceGraphic"
         in="result1"
         in2="result8"
         id="feComposite110" />
      <feGaussianBlur
         result="result0"
         in="fbSourceGraphic"
         stdDeviation="4"
         id="feGaussianBlur110" />
      <feSpecularLighting
         specularExponent="55"
         specularConstant="2.5"
         surfaceScale="2"
         lighting-color="#ffffff"
         result="result1"
         in="result0"
         id="feSpecularLighting110">
        <feDistantLight
           azimuth="225"
           elevation="60"
           id="feDistantLight110" />
      </feSpecularLighting>
      <feComposite
         operator="in"
         result="result2"
         in="result1"
         in2="fbSourceGraphic"
         id="feComposite111" />
      <feComposite
         k3="1"
         k2="1"
         operator="arithmetic"
         result="result4"
         in="fbSourceGraphic"
         in2="result2"
         id="feComposite112"
         k1="0"
         k4="0" />
      <feGaussianBlur
         result="result20"
         in="result4"
         stdDeviation="1"
         id="feGaussianBlur112" />
      <feComposite
         operator="in"
         in="result20"
         in2="result4"
         result="result9"
         id="feComposite113" />
      <feBlend
         mode="multiply"
         in="result9"
         in2="result9"
         id="feBlend113" />
    </filter>
    <filter
       inkscape:label="Molten Metal"
       inkscape:menu="Bevels"
       inkscape:menu-tooltip="Melting parts of object together, with a glossy bevel and a glow"
       style="color-interpolation-filters:sRGB"
       id="filter108"
       x="-0.30010587"
       y="-0.31910818"
       width="1.6002117"
       height="1.6382164">
      <feGaussianBlur
         stdDeviation="3"
         result="result1"
         id="feGaussianBlur103" />
      <feColorMatrix
         result="result10"
         values="1 0 0 0 0 0 1 0 0 0 0 0 1 0 0 0 0 0 5 -4 "
         id="feColorMatrix103" />
      <feComposite
         operator="atop"
         in="result10"
         in2="result10"
         result="result8"
         id="feComposite104" />
      <feComposite
         operator="in"
         result="fbSourceGraphic"
         in="result1"
         in2="result8"
         id="feComposite105" />
      <feGaussianBlur
         result="result0"
         in="fbSourceGraphic"
         stdDeviation="4"
         id="feGaussianBlur105" />
      <feSpecularLighting
         specularExponent="55"
         specularConstant="2.5"
         surfaceScale="2"
         lighting-color="#ffffff"
         result="result1"
         in="result0"
         id="feSpecularLighting105">
        <feDistantLight
           azimuth="225"
           elevation="60"
           id="feDistantLight105" />
      </feSpecularLighting>
      <feComposite
         operator="in"
         result="result2"
         in="result1"
         in2="fbSourceGraphic"
         id="feComposite106" />
      <feComposite
         k3="1"
         k2="1"
         operator="arithmetic"
         result="result4"
         in="fbSourceGraphic"
         in2="result2"
         id="feComposite107"
         k1="0"
         k4="0" />
      <feGaussianBlur
         result="result20"
         in="result4"
         stdDeviation="1"
         id="feGaussianBlur107" />
      <feComposite
         operator="in"
         in="result20"
         in2="result4"
         result="result9"
         id="feComposite108" />
      <feBlend
         mode="multiply"
         in="result9"
         in2="result9"
         id="feBlend108" />
    </filter>
    <filter
       inkscape:label="Molten Metal"
       inkscape:menu="Bevels"
       inkscape:menu-tooltip="Melting parts of object together, with a glossy bevel and a glow"
       style="color-interpolation-filters:sRGB"
       id="filter103"
       x="-0.31630981"
       y="-0.33117836"
       width="1.6326196"
       height="1.6623567">
      <feGaussianBlur
         stdDeviation="3"
         result="result1"
         id="feGaussianBlur98" />
      <feColorMatrix
         result="result10"
         values="1 0 0 0 0 0 1 0 0 0 0 0 1 0 0 0 0 0 5 -4 "
         id="feColorMatrix98" />
      <feComposite
         operator="atop"
         in="result10"
         in2="result10"
         result="result8"
         id="feComposite99" />
      <feComposite
         operator="in"
         result="fbSourceGraphic"
         in="result1"
         in2="result8"
         id="feComposite100" />
      <feGaussianBlur
         result="result0"
         in="fbSourceGraphic"
         stdDeviation="4"
         id="feGaussianBlur100" />
      <feSpecularLighting
         specularExponent="55"
         specularConstant="2.5"
         surfaceScale="2"
         lighting-color="#ffffff"
         result="result1"
         in="result0"
         id="feSpecularLighting100">
        <feDistantLight
           azimuth="225"
           elevation="60"
           id="feDistantLight100" />
      </feSpecularLighting>
      <feComposite
         operator="in"
         result="result2"
         in="result1"
         in2="fbSourceGraphic"
         id="feComposite101" />
      <feComposite
         k3="1"
         k2="1"
         operator="arithmetic"
         result="result4"
         in="fbSourceGraphic"
         in2="result2"
         id="feComposite102"
         k1="0"
         k4="0" />
      <feGaussianBlur
         result="result20"
         in="result4"
         stdDeviation="1"
         id="feGaussianBlur102" />
      <feComposite
         operator="in"
         in="result20"
         in2="result4"
         result="result9"
         id="feComposite103" />
      <feBlend
         mode="multiply"
         in="result9"
         in2="result9"
         id="feBlend103"
         result="fbSourceGraphic" />
      <feColorMatrix
         result="fbSourceGraphicAlpha"
         in="fbSourceGraphic"
         values="0 0 0 -1 0 0 0 0 -1 0 0 0 0 -1 0 0 0 0 1 0"
         id="feColorMatrix42" />
      <feGaussianBlur
         id="feGaussianBlur42"
         stdDeviation="3"
         result="result1"
         in="fbSourceGraphic" />
      <feColorMatrix
         id="feColorMatrix43"
         result="result10"
         values="1 0 0 0 0 0 1 0 0 0 0 0 1 0 0 0 0 0 5 -4 " />
      <feComposite
         id="feComposite43"
         operator="atop"
         in="result10"
         in2="result10"
         result="result8" />
      <feComposite
         id="feComposite44"
         operator="in"
         result="fbSourceGraphic"
         in="result1"
         in2="result8" />
      <feGaussianBlur
         id="feGaussianBlur44"
         result="result0"
         in="fbSourceGraphic"
         stdDeviation="4" />
      <feSpecularLighting
         id="feSpecularLighting44"
         specularExponent="55"
         specularConstant="2.5"
         surfaceScale="2"
         lighting-color="#ffffff"
         result="result1"
         in="result0">
        <feDistantLight
           id="feDistantLight44"
           azimuth="225"
           elevation="60" />
      </feSpecularLighting>
      <feComposite
         id="feComposite45"
         operator="in"
         result="result2"
         in="result1"
         in2="fbSourceGraphic" />
      <feComposite
         id="feComposite46"
         k3="1"
         k2="1"
         operator="arithmetic"
         result="result4"
         in="fbSourceGraphic"
         in2="result2"
         k1="0"
         k4="0" />
      <feGaussianBlur
         id="feGaussianBlur46"
         result="result20"
         in="result4"
         stdDeviation="1" />
      <feComposite
         id="feComposite47"
         operator="in"
         in="result20"
         in2="result4"
         result="result9" />
      <feBlend
         id="feBlend47"
         mode="multiply"
         in="result9"
         in2="result9" />
    </filter>
    <filter
       inkscape:label="Molten Metal"
       inkscape:menu="Bevels"
       inkscape:menu-tooltip="Melting parts of object together, with a glossy bevel and a glow"
       style="color-interpolation-filters:sRGB"
       id="filter98"
       x="-0.30372994"
       y="-0.31800554"
       width="1.6074599"
       height="1.6360111">
      <feGaussianBlur
         stdDeviation="3"
         result="result1"
         id="feGaussianBlur93" />
      <feColorMatrix
         result="result10"
         values="1 0 0 0 0 0 1 0 0 0 0 0 1 0 0 0 0 0 5 -4 "
         id="feColorMatrix93" />
      <feComposite
         operator="atop"
         in="result10"
         in2="result10"
         result="result8"
         id="feComposite94" />
      <feComposite
         operator="in"
         result="fbSourceGraphic"
         in="result1"
         in2="result8"
         id="feComposite95" />
      <feGaussianBlur
         result="result0"
         in="fbSourceGraphic"
         stdDeviation="4"
         id="feGaussianBlur95" />
      <feSpecularLighting
         specularExponent="55"
         specularConstant="2.5"
         surfaceScale="2"
         lighting-color="#ffffff"
         result="result1"
         in="result0"
         id="feSpecularLighting95">
        <feDistantLight
           azimuth="225"
           elevation="60"
           id="feDistantLight95" />
      </feSpecularLighting>
      <feComposite
         operator="in"
         result="result2"
         in="result1"
         in2="fbSourceGraphic"
         id="feComposite96" />
      <feComposite
         k3="1"
         k2="1"
         operator="arithmetic"
         result="result4"
         in="fbSourceGraphic"
         in2="result2"
         id="feComposite97"
         k1="0"
         k4="0" />
      <feGaussianBlur
         result="result20"
         in="result4"
         stdDeviation="1"
         id="feGaussianBlur97" />
      <feComposite
         operator="in"
         in="result20"
         in2="result4"
         result="result9"
         id="feComposite98" />
      <feBlend
         mode="multiply"
         in="result9"
         in2="result9"
         id="feBlend98"
         result="fbSourceGraphic" />
      <feColorMatrix
         result="fbSourceGraphicAlpha"
         in="fbSourceGraphic"
         values="0 0 0 -1 0 0 0 0 -1 0 0 0 0 -1 0 0 0 0 1 0"
         id="feColorMatrix37" />
      <feGaussianBlur
         id="feGaussianBlur37"
         stdDeviation="3"
         result="result1"
         in="fbSourceGraphic" />
      <feColorMatrix
         id="feColorMatrix38"
         result="result10"
         values="1 0 0 0 0 0 1 0 0 0 0 0 1 0 0 0 0 0 5 -4 " />
      <feComposite
         id="feComposite38"
         operator="atop"
         in="result10"
         in2="result10"
         result="result8" />
      <feComposite
         id="feComposite39"
         operator="in"
         result="fbSourceGraphic"
         in="result1"
         in2="result8" />
      <feGaussianBlur
         id="feGaussianBlur39"
         result="result0"
         in="fbSourceGraphic"
         stdDeviation="4" />
      <feSpecularLighting
         id="feSpecularLighting39"
         specularExponent="55"
         specularConstant="2.5"
         surfaceScale="2"
         lighting-color="#ffffff"
         result="result1"
         in="result0">
        <feDistantLight
           id="feDistantLight39"
           azimuth="225"
           elevation="60" />
      </feSpecularLighting>
      <feComposite
         id="feComposite40"
         operator="in"
         result="result2"
         in="result1"
         in2="fbSourceGraphic" />
      <feComposite
         id="feComposite41"
         k3="1"
         k2="1"
         operator="arithmetic"
         result="result4"
         in="fbSourceGraphic"
         in2="result2"
         k1="0"
         k4="0" />
      <feGaussianBlur
         id="feGaussianBlur41"
         result="result20"
         in="result4"
         stdDeviation="1" />
      <feComposite
         id="feComposite42"
         operator="in"
         in="result20"
         in2="result4"
         result="result9" />
      <feBlend
         id="feBlend42"
         mode="multiply"
         in="result9"
         in2="result9" />
    </filter>
    <filter
       inkscape:label="Molten Metal"
       inkscape:menu="Bevels"
       inkscape:menu-tooltip="Melting parts of object together, with a glossy bevel and a glow"
       style="color-interpolation-filters:sRGB"
       id="filter37-4"
       x="-0.0039657231"
       y="-0.08780515"
       width="1.0079314"
       height="1.1756103">
      <feGaussianBlur
         stdDeviation="3"
         result="result1"
         id="feGaussianBlur33-5" />
      <feColorMatrix
         result="result10"
         values="1 0 0 0 0 0 1 0 0 0 0 0 1 0 0 0 0 0 5 -4 "
         id="feColorMatrix33-5" />
      <feComposite
         operator="atop"
         in="result10"
         in2="result10"
         result="result8"
         id="feComposite33-1" />
      <feComposite
         operator="in"
         result="fbSourceGraphic"
         in="result1"
         in2="result8"
         id="feComposite34-7" />
      <feGaussianBlur
         result="result0"
         in="fbSourceGraphic"
         stdDeviation="4"
         id="feGaussianBlur34-1" />
      <feSpecularLighting
         specularExponent="55"
         specularConstant="2.5"
         surfaceScale="2"
         lighting-color="#ffffff"
         result="result1"
         in="result0"
         id="feSpecularLighting34-1">
        <feDistantLight
           azimuth="225"
           elevation="60"
           id="feDistantLight34-5" />
      </feSpecularLighting>
      <feComposite
         operator="in"
         result="result2"
         in="result1"
         in2="fbSourceGraphic"
         id="feComposite35-2" />
      <feComposite
         k3="1"
         k2="1"
         operator="arithmetic"
         result="result4"
         in="fbSourceGraphic"
         in2="result2"
         id="feComposite36-7"
         k1="0"
         k4="0" />
      <feGaussianBlur
         result="result20"
         in="result4"
         stdDeviation="1"
         id="feGaussianBlur36-6" />
      <feComposite
         operator="in"
         in="result20"
         in2="result4"
         result="result9"
         id="feComposite37-1" />
      <feBlend
         mode="multiply"
         in="result9"
         in2="result9"
         id="feBlend37-4" />
    </filter>
  </defs>
  <sodipodi:namedview
     id="namedview4"
     pagecolor="#ffffff"
     bordercolor="#ffffff"
     borderopacity="0.25"
     inkscape:showpageshadow="2"
     inkscape:pageopacity="0.0"
     inkscape:pagecheckerboard="0"
     inkscape:deskcolor="#ffffff"
     inkscape:zoom="1.0935961"
     inkscape:cx="757.13511"
     inkscape:cy="16.002252"
     inkscape:window-width="1920"
     inkscape:window-height="1009"
     inkscape:window-x="3832"
     inkscape:window-y="-8"
     inkscape:window-maximized="1"
     inkscape:current-layer="svg4"
     showguides="true"
     showgrid="false">
    <inkscape:grid
       id="grid1"
       units="px"
       originx="0"
       originy="0"
       spacingx="1"
       spacingy="1"
       empcolor="#0099e5"
       empopacity="0.30196078"
       color="#0099e5"
       opacity="0.14901961"
       empspacing="5"
       enabled="true"
       visible="false" />
  </sodipodi:namedview>
  <g
     id="g4"
     transform="matrix(1.0078829,0,0,1.0408677,-10.058557,-2.743243)">
    <path
       d="m 1483,144.79 c 0,1.15 -0.34,2.29 -0.75,2.54 -1.35,0.81 -17.31,-6.65 -20.41,-9.54 -7.76,-7.22 -11.56,-9.49 -16.91,-10.12 -9.84,-1.14 -14.73,-4.77 -15.65,-11.6 -0.58,-4.32 1.71,-12.09 4.5,-15.31 1.18,-1.36 1.31,-2.67 0.61,-5.98 -0.82,-3.89 -1.2,-4.3 -4.55,-4.84 -4.62,-0.75 -8.41,-3.2 -9.11,-5.88 l -0.54,-2.06 2.81,2 c 3.17,2.26 10.53,2.74 11.34,0.75 0.4,-1 0.52,-1 0.58,0 0.16,2.44 12.09,0.83 18.71,-2.53 1.03,-0.52 3.22,-1.41 4.87,-1.96 1.65,-0.56 3.79,-1.34 4.75,-1.74 1.24,-0.52 1.75,-0.27 1.75,0.85 0,1.62 -4.77,4.63 -7.33,4.63 -0.78,0 -1.98,0.67 -2.66,1.49 -0.68,0.82 -1.64,1.24 -2.12,0.94 -0.49,-0.3 -0.89,-0.16 -0.89,0.3 0,0.47 -2.81,1.44 -6.25,2.15 -10.69,2.22 -10.9,2.54 -4.48,6.96 6.21,4.27 15.22,6.38 13.18,3.08 -0.32,-0.51 -0.22,-1.95 0.21,-3.18 0.66,-1.87 0.88,-1.51 1.32,2.17 0.5,4.28 0.67,4.46 5.61,6.14 2.8,0.94 6.97,2.04 9.25,2.42 3.61,0.61 4.16,0.46 4.16,-1.1 0,-1.6 0.18,-1.56 1.51,0.34 1.09,1.56 3.01,2.34 6.98,2.83 6.85,0.86 10.34,-0.45 21.37,-8 7.28,-4.99 10.14,-6.03 10.14,-3.7 0,0.4 -1.46,1.59 -3.25,2.65 -4.71,2.77 -12.19,8.57 -12.64,9.79 -0.26,0.72 4.35,0.84 14.7,0.39 19.74,-0.85 28.92,-2.91 29.91,-6.69 0.64,-2.45 3.11,-2.64 2.92,-0.23 -0.11,1.35 0.51,1.68 2.7,1.45 4.66,-0.5 13.4,-4.85 14.73,-7.33 1.73,-3.23 1.77,-27.16 0.05,-29.22 -1.49,-1.8 -8.63,-5.65 -10.47,-5.65 -0.71,0 -2.75,1.3 -4.52,2.89 l -3.24,2.89 0.69,12.46 c 0.5,8.92 0.37,12.67 -0.44,13.17 -0.82,0.51 -1.14,-1.81 -1.14,-8.27 0,-12.63 -0.19,-12.9 -5.99,-8.65 -2.63,1.93 -5.06,3.51 -5.39,3.51 -1.88,0 0.07,-3.13 4.9,-7.89 5.31,-5.22 6.47,-7.68 4.56,-9.66 -0.5,-0.52 -1.06,-2.01 -1.25,-3.31 -0.34,-2.46 -3.74,-4.03 -12.33,-5.72 -7.22,-1.41 -8.8,-1.52 -29.53,-2.06 l -20.52,-0.53 -1.12,2.84 c -1.01,2.56 -1.13,2.62 -1.22,0.58 -0.09,-1.91 -0.67,-2.25 -3.83,-2.25 -2.05,0 -6.07,0.55 -8.94,1.21 -5,1.17 -5.25,1.39 -6.29,5.5 -1.31,5.21 -2.54,5.69 -1.72,0.67 0.57,-3.56 0.54,-3.6 -2.38,-3.02 -1.63,0.33 -5.53,1.62 -8.68,2.87 -6.46,2.56 -8.23,5.02 -8.26,11.41 -0.01,2.9 -0.5,4.33 -1.64,4.77 -1.41,0.54 -1.56,-0.06 -1.15,-4.39 0.27,-2.76 0.13,-5.02 -0.31,-5.02 -1.91,0 -7.69,4.21 -8.91,6.5 -0.74,1.37 -1.94,2.5 -2.67,2.5 -0.73,0 -1.33,0.53 -1.33,1.17 0,0.64 -0.29,0.88 -0.63,0.53 -2.06,-2.06 4.24,-9.8 12.3,-15.11 2.5,-1.65 4.81,-4.23 5.74,-6.42 4.6,-10.78 12.61,-20.79 22.45,-28.04 13.76,-10.13 21.75,-12.64 40.14,-12.6 15.64,0.03 21.66,1.45 32.09,7.61 6.49,3.84 6.64,3.87 10.21,2.38 2,-0.84 5.27,-1.52 7.26,-1.52 4.06,0 9.44,3.26 9.44,5.72 0,1.36 -0.3,1.32 -2.07,-0.28 -2.26,-2.05 -12.08,-2.69 -13.87,-0.9 -0.62,0.62 1.74,3.78 6.63,8.86 7.57,7.87 7.59,7.88 8.91,5.49 0.73,-1.31 1.35,-4.53 1.36,-7.14 0.02,-2.61 0.38,-4.75 0.79,-4.75 1.05,0 0.25,10.24 -0.91,11.67 -1.46,1.8 -0.33,8.23 2.55,14.52 1.44,3.12 2.61,6.23 2.61,6.9 0,0.67 1.82,2.78 4.05,4.68 2.22,1.91 3.81,3.7 3.53,3.99 -0.29,0.28 0.37,1.76 1.45,3.28 1.08,1.52 1.97,3.82 1.97,5.1 0,2.04 -0.22,1.91 -1.83,-1.09 -1.01,-1.88 -2.81,-4.06 -4,-4.85 L 1569,72.76 v 10.62 c 0,5.84 0.38,10.62 0.84,10.62 1.17,0 3.74,-2.95 5.47,-6.3 l 1.45,-2.79 0.45,3.06 c 0.39,2.7 -0.3,3.76 -5.88,9.04 -3.48,3.29 -6.33,6.61 -6.33,7.36 0,2.42 -4.06,10.65 -8.3,16.83 -8.41,12.26 -24.76,24.22 -35.98,26.32 -3.52,0.66 -3.72,0.56 -3.72,-1.9 0,-1.93 1,-3.23 3.91,-5.06 4.33,-2.73 12.65,-12.4 14.69,-17.06 0.72,-1.65 2.17,-4.27 3.22,-5.82 1.88,-2.78 1.92,-2.79 2.49,-0.59 0.8,3.05 -2.35,8.52 -10.56,18.37 -3.11,3.73 -3.35,4.54 -1.36,4.54 4.09,0 19.89,-13.32 24.91,-21.01 3.83,-5.85 7.63,-12.46 7.67,-13.32 0.04,-1 -4.4,-0.09 -12.47,2.56 -3.3,1.08 -7.36,1.94 -9.03,1.91 -5.23,-0.11 -14.94,3.4 -15.24,5.49 -0.73,4.98 -3.86,14.08 -5.44,15.8 -2.33,2.53 -3.13,1.57 -1.69,-2.04 1.4,-3.51 3.87,-14.63 3.42,-15.36 -0.18,-0.29 -7.69,-0.48 -16.67,-0.42 -17.24,0.11 -23.15,1.28 -26.72,5.3 -0.9,1.01 -3.77,2.4 -6.38,3.09 -2.61,0.7 -4.75,1.41 -4.75,1.6 0,2.13 5.44,9.53 10.11,13.76 3.62,3.27 5.89,6.14 5.89,7.43 z M 367.07,133.84 c -4.39,2.29 -16.3,3.53 -22.07,2.3 -4.25,-0.91 -8.28,-3.35 -13.23,-8 -2.05,-1.93 -4.06,-3.18 -4.46,-2.78 -0.4,0.4 -0.6,2.47 -0.45,4.61 0.21,2.95 -0.16,4.1 -1.54,4.76 -2.36,1.14 -13.36,1.64 -17.27,0.78 L 305,134.84 V 28.93 l 22.5,0.57 0.27,19.25 c 0.15,10.59 0.64,19.25 1.08,19.25 0.44,0 1.82,-1.09 3.07,-2.42 6.3,-6.7 20.91,-8.98 32.56,-5.08 7.97,2.67 16.3,10.79 19.63,19.14 1.94,4.87 2.34,7.72 2.36,16.86 0.03,9.42 -0.33,11.91 -2.47,17.34 -2.91,7.38 -10.96,16.9 -16.93,20 z M 125,133.91 c -8.54,2.33 -25.7,3.39 -34,2.11 -5.69,-0.88 -12.86,-3.42 -19.62,-6.94 -4.15,-2.16 -13.68,-11.26 -15.93,-15.21 -2.7,-4.75 -5.3,-10.45 -6.32,-13.87 -2.91,-9.79 -2.1,-29.94 1.49,-37.08 0.95,-1.88 2.18,-4.32 2.73,-5.42 0.56,-1.1 1.63,-3.21 2.38,-4.69 1.75,-3.47 10.88,-11.81 16.61,-15.16 2.46,-1.44 8.19,-3.8 12.74,-5.23 7.47,-2.36 9.43,-2.58 20.34,-2.2 9.12,0.31 13.67,0.96 18.58,2.66 7.06,2.44 14.74,5.91 16.78,7.57 4.01,3.26 4.13,3.5 2.89,5.81 -1.85,3.45 -4.82,7.87 -8,11.91 l -2.88,3.68 -4.76,-3.43 c -9.96,-7.15 -23.2,-9.16 -35.45,-5.37 -5.33,1.64 -7.66,3.08 -11.86,7.29 -7.1,7.13 -9.15,13.23 -8.49,25.31 0.79,14.52 5.52,21.96 17.55,27.62 5.99,2.81 6.8,2.93 17,2.54 7.61,-0.28 11.66,-0.9 13.97,-2.13 L 124,111.95 V 82 l 7.75,-0.18 c 10.59,-0.25 13.55,0.04 14.41,1.43 0.4,0.65 0.64,10.34 0.53,21.53 l -0.19,20.34 -2.5,1.34 c -5.9,3.15 -11.99,5.54 -19,7.45 z m 139.41,-0.17 c -10.29,3.9 -26.47,3.74 -34.91,-0.35 -9.48,-4.59 -13.62,-8.2 -18.21,-15.87 -8.68,-14.5 -6.47,-34.39 5.21,-46.75 7.76,-8.21 17.01,-11.77 30.5,-11.75 17.12,0.02 28.93,5.81 36.35,17.82 7.33,11.86 7.41,29.66 0.19,41.1 -3.81,6.02 -12.68,13.35 -19.13,15.8 z m 498.15,0.86 c -6.27,2.55 -19.69,3.72 -28.58,2.48 -9.74,-1.35 -21.51,-6.21 -30.86,-12.74 -0.56,-0.39 8.25,-17.4 8.86,-17.09 19.7,10.08 28.52,12.62 37.44,10.77 7.12,-1.48 10.11,-4.65 9.98,-10.59 -0.07,-3.59 -0.62,-4.81 -2.95,-6.65 -3.4,-2.67 -12.01,-6.78 -14.22,-6.78 -1.48,0 -10.18,-3.15 -18.42,-6.67 -5.6,-2.39 -12.49,-9.87 -14.81,-16.05 -2.69,-7.21 -2.52,-12.41 0.69,-20.59 3.38,-8.62 8.58,-13.45 18.38,-17.08 13.31,-4.93 34.33,-3.06 48.87,4.36 4.78,2.44 4.83,3.17 0.85,11.89 -1.88,4.11 -2.82,6.21 -4.36,6.83 -1.61,0.64 -3.88,-0.34 -8.55,-2.37 l -0.19,-0.09 c -7.57,-3.29 -8.97,-3.57 -18.53,-3.64 -10.33,-0.09 -10.34,-0.09 -12.75,2.91 -3.13,3.91 -3.12,8.5 0.02,12.24 2.3,2.73 4.88,3.91 22.57,10.38 20.7,7.56 26.47,14.18 26.46,30.38 -0.01,12.94 -7.04,22.87 -19.9,28.1 z m 416.6,-1.32 c -6.42,3.46 -7.63,3.76 -17.28,4.19 -11.27,0.5 -14.08,0.05 -21.5,-3.5 -14.31,-6.84 -22.38,-19.62 -22.38,-35.48 0,-12.11 7.4,-25.82 17.39,-32.21 10.45,-6.68 27.63,-8.46 38.92,-4.03 6.16,2.42 14.59,8.46 14.65,10.5 0.02,0.69 0.46,1.25 0.97,1.25 0.51,0 2.32,2.96 4.03,6.58 2.88,6.09 3.09,7.26 2.83,15.75 l -0.29,9.17 -27.75,0.27 c -15.26,0.14 -27.75,0.5 -27.75,0.8 0,1.36 3.04,6.15 5.17,8.13 3.18,2.97 9.01,5.3 13.26,5.3 4.25,0 12.11,-2.56 15.72,-5.12 1.46,-1.03 3.28,-1.88 4.04,-1.88 0.76,0 3.82,2.47 6.8,5.49 l 5.41,5.48 -2.67,2.79 c -1.47,1.53 -5.78,4.46 -9.57,6.52 z m -741.66,0.5 c -4.53,2.27 -14.94,3.42 -21.16,2.33 -5.17,-0.9 -11.3,-4.88 -15.01,-9.74 -2.61,-3.42 -2.83,-4.4 -2.83,-12.47 0,-10.33 1.22,-12.62 9.28,-17.5 5.68,-3.44 15.85,-5.29 31.22,-5.68 l 8.5,-0.22 -0.26,-3.5 c -0.18,-2.51 -1.24,-4.42 -3.73,-6.75 -3.39,-3.16 -3.71,-3.25 -12.25,-3.21 -5.28,0.03 -10.35,0.65 -12.76,1.56 -7.91,2.99 -9.44,3.3 -10.21,2.08 -0.66,-1.05 -3.45,-8.32 -4.94,-12.89 -1.14,-3.47 15.58,-8.92 29.4,-9.58 7.98,-0.39 10.41,-0.09 17.75,2.2 4.67,1.46 8.5,3.09 8.5,3.62 0,0.53 0.62,0.97 1.38,0.97 2.56,0 8.93,10.65 9.73,16.27 1.02,7.16 1.09,52.49 0.08,53.11 -0.45,0.28 -5.21,0.61 -10.58,0.74 -10.2,0.24 -12.14,-0.49 -11.25,-4.26 0.22,-0.9 0.02,-2.24 -0.44,-2.98 -0.64,-1.05 -1.43,-0.77 -3.62,1.28 -1.54,1.44 -4.6,3.52 -6.8,4.62 z m 417,-0.25 c -5.66,2.75 -8.53,3.48 -15,3.85 -12.36,0.71 -18.06,-0.76 -30.34,-7.81 -7.32,-4.21 -14.77,-20.4 -14.55,-31.66 0.24,-12.76 6.8,-25.24 16.56,-31.49 10.5,-6.71 27.95,-8.6 39.32,-4.25 14.03,5.37 23.09,20.32 22.31,36.83 l -0.3,6.5 -27.75,0.27 c -15.26,0.14 -27.75,0.64 -27.75,1.1 0,2.54 6.55,9.44 10.63,11.19 7.09,3.03 12.95,2.56 21.25,-1.7 l 7.08,-3.65 4.77,4.34 c 2.62,2.39 5.15,4.97 5.62,5.74 1.32,2.16 -3.88,6.87 -11.85,10.74 z m -246.9,29.64 c -3.85,2.79 -4.09,2.83 -18.25,2.83 H 575 v -8.5 c 0,-9.41 0.26,-9.7 6.83,-7.41 2.44,0.85 4.16,0.74 7.93,-0.51 8.35,-2.77 12.03,-9.3 9.67,-17.14 -0.74,-2.48 -2,-5.72 -2.79,-7.22 -0.79,-1.5 -2.66,-5.65 -4.16,-9.22 -1.49,-3.57 -3.97,-9.2 -5.49,-12.5 -2.48,-5.35 -4.74,-10.96 -14.39,-35.67 -1.43,-3.67 -2.6,-6.89 -2.6,-7.15 0,-0.92 15.92,-1.87 19.95,-1.19 2.69,0.46 4.47,1.43 5.24,2.85 1.3,2.4 5.35,13.26 6.97,18.66 0.58,1.93 1.41,3.95 1.85,4.5 0.44,0.55 1.31,3.03 1.95,5.5 0.64,2.47 1.85,6.02 2.71,7.88 0.85,1.85 1.65,3.88 1.79,4.5 0.51,2.39 1.79,4.62 2.66,4.62 1.02,0 5.88,-10.47 5.88,-12.67 0,-0.79 0.75,-2.87 1.66,-4.63 0.91,-1.76 1.99,-4.55 2.4,-6.2 0.41,-1.65 2.19,-6.82 3.95,-11.5 1.77,-4.68 3.44,-9.51 3.72,-10.75 0.49,-2.18 0.86,-2.25 12.81,-2.25 h 12.3 l -5.01,12.25 c -2.75,6.74 -5.6,13.6 -6.33,15.25 -0.73,1.65 -1.85,4.68 -2.49,6.74 -0.63,2.05 -1.57,3.99 -2.08,4.31 -0.51,0.31 -0.93,1.2 -0.93,1.98 0,0.78 -1.12,3.87 -2.5,6.88 -1.38,3 -2.5,5.92 -2.5,6.49 0,0.56 -1.51,4.3 -3.36,8.31 -1.84,4.01 -4.75,10.89 -6.45,15.29 -5.42,14.04 -9.73,20.7 -16.59,25.67 z m 397.97,-28.46 c -7.93,4.03 -23.44,4.03 -28.17,-0.01 -12.12,-10.37 -13.66,-16.5 -13.18,-52.2 l 0.28,-21 11.25,-0.28 c 10.22,-0.26 11.25,-0.12 11.3,1.5 0.03,0.98 0.01,11.32 -0.05,22.98 -0.11,22.52 0.37,25.25 5.18,29.44 4.18,3.65 12.81,3.4 18.12,-0.52 5.91,-4.36 6.7,-8.15 6.7,-32.1 V 60.93 l 11.25,0.29 11.25,0.28 0.23,36.5 c 0.19,29.38 -0.02,36.7 -1.09,37.5 -0.74,0.56 -5.56,0.86 -10.98,0.68 l -9.66,-0.32 v -4.43 c 0,-5.2 -1.45,-5.72 -5.08,-1.83 -1.33,1.43 -4.64,3.73 -7.35,5.11 z m 345.93,-80.21 -1,81 -11.74,0.28 -11.74,0.28 -0.52,-81.56 -33,-1 -0.29,-9.75 -0.28,-9.75 h 89.89 l 0.71,8.48 c 0.38,4.66 0.44,9.15 0.13,9.97 -0.47,1.23 -3.44,1.55 -16.37,1.77 z m -409.6,79.39 c -4.81,2.62 -6.92,3.11 -15,3.52 -5.17,0.26 -11.2,0.13 -13.4,-0.29 -8.43,-1.59 -18.93,-8.86 -24.45,-16.93 -3.28,-4.78 -6.03,-14.74 -6.04,-21.83 -0.01,-6.75 3.13,-18.41 5.49,-20.36 0.83,-0.69 1.5,-1.77 1.5,-2.42 0,-1.54 6.69,-7.86 10.5,-9.93 7.96,-4.31 13.51,-5.65 23.34,-5.65 12.18,0 20.03,2.39 26.3,8.02 4.19,3.76 4.3,4 2.86,6.35 -0.83,1.35 -4.37,4.56 -7.88,7.14 -4.94,3.62 -6.58,4.37 -7.24,3.34 -0.47,-0.74 -0.86,-1.58 -0.86,-1.86 -0.01,-0.27 -2.33,-1.56 -5.16,-2.86 -9.54,-4.38 -18.94,-0.57 -23.57,9.56 -2.96,6.46 -2.75,12.52 0.65,19.2 2.11,4.12 7.9,8.26 13.35,9.52 3.72,0.86 10.46,-1.02 14.46,-4.05 2.03,-1.54 3.75,-2.16 4.57,-1.66 3.71,2.25 12.68,9.91 12.68,10.84 0,1.82 -6.24,7.16 -12.1,10.35 z m 335.85,1.77 c -1.35,0.83 -14.23,1.24 -19.5,0.6 L 1255,135.87 V 34 h 22.69 l 0.65,15.75 c 1.2,28.85 0.81,85.04 -0.59,85.91 z M 1443,53.57 v 2.23 l 7.91,-2.63 c 7.49,-2.49 7.97,-2.83 9.03,-6.36 0.61,-2.05 1.55,-4 2.09,-4.33 0.89,-0.55 1.44,2.23 1.04,5.27 -0.34,2.65 13.19,0.72 15.18,-2.16 0.53,-0.77 0.98,-0.74 1.52,0.1 1.2,1.85 39.17,2.03 40.31,0.19 0.69,-1.12 1.07,-1.06 2.13,0.33 0.71,0.93 3.32,2.34 5.79,3.13 10.61,3.39 12.29,2.95 9.57,-2.51 -0.86,-1.72 -1.57,-3.97 -1.57,-4.98 0,-1.76 0.09,-1.77 1.83,-0.1 1.01,0.96 1.7,1.92 1.54,2.13 -0.16,0.2 0.29,1.55 0.99,3 0.71,1.44 1.12,3.35 0.92,4.24 -0.28,1.18 0.97,2.06 4.61,3.25 l 0.4,0.13 c 3.41,1.12 4.89,1.6 5.9,1.12 0.8,-0.39 1.31,-1.39 2.27,-3.17 1.87,-3.48 1.87,-3.62 0.03,-6.75 -2.19,-3.73 -11.45,-13.16 -16.49,-16.8 -4.29,-3.09 -12.38,-6.9 -14.66,-6.9 -1.41,0 -1.3,0.42 0.66,2.5 2.36,2.51 1.29,3.62 -1.18,1.22 -5.03,-4.88 -12.52,-7.71 -11.18,-4.22 0.84,2.19 -1.03,1.83 -3.23,-0.61 -3.98,-4.41 -11.97,-4.81 -16.25,-0.82 -2.47,2.29 -3.3,2.46 -2.55,0.5 0.93,-2.43 -6.12,0.32 -10.54,4.11 -3.76,3.21 -6.07,4.17 -6.07,2.52 0,-0.44 0.53,-1.33 1.18,-1.98 2.96,-2.96 -0.73,-2.12 -6.9,1.57 -11.2,6.71 -24.28,21.13 -24.28,26.78 z m -930.68,81.18 c -1.03,0.76 -4.9,1.25 -9.82,1.25 -4.92,0 -8.79,-0.49 -9.82,-1.25 -1.57,-1.15 -1.68,-5.25 -1.44,-53.25 l 0.26,-52 h 22 l 0.26,52 c 0.24,48 0.13,52.1 -1.44,53.25 z m 44.72,-0.29 c -0.99,1.18 -16.7,1.86 -20.3,0.87 -1.65,-0.45 -1.74,-3.61 -1.5,-53.16 L 535.5,29.5 h 22 l 0.26,51.89 c 0.16,32.88 -0.1,52.32 -0.72,53.07 z m -370.28,0.91 c -2.97,0.79 -14.58,0.62 -17.76,-0.26 l -2.5,-0.7 V 29.5 h 22 l 0.26,52.63 0.26,52.63 z m 895.66,1.02 c -1.85,0.71 -9.99,0.57 -16.42,-0.29 l -4.5,-0.6 v -74 l 21.5,-0.57 v 4.37 c 0,2.4 0.29,4.66 0.65,5.02 0.36,0.35 2.34,-0.88 4.4,-2.75 5.51,-4.98 12.37,-7.72 18.43,-7.36 l 5.02,0.29 0.29,6.69 c 0.17,3.68 -0.09,8.18 -0.56,10 -0.8,3.09 -1.15,3.32 -5.29,3.45 -7.59,0.24 -12.43,2.1 -16.57,6.36 -2.13,2.19 -4.16,5 -4.52,6.24 -0.36,1.24 -0.7,11.32 -0.75,22.4 -0.09,17.39 -0.32,20.23 -1.68,20.75 z M 241.5,116.8 c 11.7,4.08 24.5,-5.75 24.5,-18.82 0,-5.25 -2.76,-11.88 -6.35,-15.27 -9.69,-9.14 -24.98,-5.41 -29.35,7.16 -3.74,10.71 1.62,23.59 11.2,26.93 z m 97.86,-0.13 c 8.74,3.27 18.04,-0.67 22.64,-9.59 1.56,-3.01 1.49,-16.3 -0.1,-19.27 -3.07,-5.73 -10.55,-10.8 -15.95,-10.81 -5.84,0 -13.67,4.53 -16.15,9.36 -2.55,4.96 -2.97,14.42 -0.87,19.64 1.79,4.45 6.4,9.16 10.43,10.67 z m 85.06,3.44 c 5.43,3.32 13.63,1.88 19.55,-3.41 2.85,-2.56 3.1,-3.27 2.83,-8 l -0.3,-5.2 -8.5,0.05 c -10.49,0.06 -15.01,1.5 -17.38,5.52 -1.56,2.63 -1.63,3.48 -0.54,6.11 0.69,1.68 2.65,3.9 4.34,4.93 z m 393.01,-31.68 -0.66,2.62 16.37,-0.27 16.36,-0.28 0.31,-2.7 c 0.22,-1.93 -0.63,-3.72 -3.01,-6.32 -2.96,-3.23 -4,-3.69 -9.55,-4.19 -10.32,-0.94 -17.85,3.3 -19.82,11.14 z M 1142,88.54 V 91 h 15.94 c 8.77,0 16.2,-0.41 16.51,-0.92 0.88,-1.42 -1.31,-6.29 -4.16,-9.29 -3.02,-3.17 -8.9,-4.38 -16.04,-3.3 -3.74,0.56 -5.55,1.55 -8.5,4.65 -2.25,2.36 -3.75,4.93 -3.75,6.4 z m 307.75,32.71 c 1.44,1.51 2.07,2.28 2.86,2.51 0.76,0.23 1.66,-0.05 3.58,-0.63 0.29,-0.09 0.6,-0.19 0.94,-0.29 2.61,-0.78 3.87,-1.74 3.87,-2.94 0,-0.98 -0.36,-2.01 -0.8,-2.28 -0.44,-0.27 -1.44,-2.82 -2.21,-5.67 -1.21,-4.42 -1.94,-5.41 -4.95,-6.72 -1.95,-0.84 -5.44,-2.47 -7.76,-3.61 -6.78,-3.35 -7.31,-1.43 -2.33,8.54 2.3,4.59 5.35,9.58 6.8,11.09 z m -12.92,1.04 c 1.47,0.91 4.4,1.67 6.52,1.68 l 3.85,0.03 -2.25,-3.75 c -1.93,-3.22 -3.81,-6.82 -6.9,-13.19 -1.26,-2.61 -2.64,-2.15 -4.36,1.46 -2.82,5.92 -1.72,10.75 3.14,13.77 z m 26.19,-5.54 c 1.44,3.84 2.45,3.97 8.45,1.05 3.36,-1.63 4.53,-2.77 4.53,-4.43 0,-1.97 -0.91,-2.44 -7.55,-3.91 -4.16,-0.93 -7.83,-1.41 -8.17,-1.07 -0.34,0.34 -0.14,1.62 0.45,2.86 0.59,1.24 1.62,3.71 2.29,5.5 z m 5.48,21.05 c 3.52,2.01 4.98,1.52 3.11,-1.05 -0.9,-1.24 -3.1,-4.38 -4.88,-6.98 -1.77,-2.6 -3.77,-4.74 -4.43,-4.75 -1.81,-0.03 -6.3,2.19 -6.3,3.11 0,0.79 8.57,7.42 12.5,9.67 z m 88.12,-79.09 c 3.71,2.72 6.23,0.95 3.74,-2.61 -1.5,-2.14 -1.64,-2.16 -3.53,-0.45 -1.86,1.69 -1.87,1.85 -0.21,3.06 z M 1475.8,90 c 0.19,4.4 -0.09,7 -0.75,7 -0.63,0 -1.05,-2.79 -1.05,-7 0,-9.09 1.41,-9.09 1.8,0 z m -6.99,-54.04 c -2.68,2.5 -3.77,2.6 -3.15,0.29 0.76,-2.85 3.13,-5.5 4.27,-4.79 1.61,0.99 1.3,2.25 -1.12,4.5 z m 10.27,84.72 c 0.59,0.59 0.93,2.37 0.74,3.95 l -0.33,2.87 -0.73,-2.5 c -1.11,-3.79 -0.97,-5.61 0.32,-4.32 z M 1488,24.69 c 0,0.51 -0.66,1.8 -1.47,2.87 -1.23,1.63 -1.47,1.68 -1.5,0.31 -0.02,-0.89 0.65,-2.19 1.47,-2.87 0.82,-0.68 1.5,-0.83 1.5,-0.31 z m 58.64,36.62 c 0.8,0.8 2.36,-0.11 2.36,-1.37 0,-0.52 -0.68,-0.94 -1.5,-0.94 -1.55,0 -1.99,1.18 -0.86,2.31 z"
       fill="#0f192d"
       id="path1" />
    <path
       d="m 1484.59,46.62 c -2.74,-0.23 -4.57,-0.54 -4.82,-0.93 -0.54,-0.84 -0.99,-0.87 -1.52,-0.1 -0.35,0.51 -1.08,0.99 -2.02,1.43 1.47,-0.89 1.95,-2.44 3.19,-7.23 1.91,-7.42 4.9,-13.98 7.87,-17.27 2.34,-2.59 0.35,-2.72 -2.58,-1.5 3.01,-1.48 5.48,-1.95 4.9,-0.45 -0.75,1.96 0.08,1.79 2.55,-0.5 1.72,-1.6 4.03,-2.5 6.45,-2.71 -1.2,0.35 -2.37,1.24 -4.3,2.98 -4.05,3.66 -8.62,11.82 -10.97,19.57 -0.12,0.39 -0.24,0.77 -0.35,1.12 -0.67,2.15 -1.1,3.52 -0.62,4.41 0.31,0.57 0.99,0.94 2.22,1.18 z m 59.13,56.36 c -0.17,0.62 -0.56,1.2 -1.18,1.74 0.65,-1.56 1.11,-7.26 1.32,-16.44 l 0.32,-13.79 c 0.77,1.11 0.82,4.34 0.82,10.65 0,6.46 0.32,8.78 1.14,8.27 0.81,-0.5 0.94,-4.25 0.44,-13.17 l -0.69,-12.46 3.24,-2.89 c 0.44,-0.4 0.9,-0.77 1.34,-1.12 -0.08,0.09 -0.15,0.17 -0.23,0.26 -1.49,1.75 -1.75,4.34 -1.8,18.25 -0.04,10.89 -0.47,16.97 -1.3,18.49 -0.22,0.41 -0.4,0.85 -0.53,1.27 -0.31,-1.63 -2.33,-1.23 -2.89,0.94 z m -76.98,2.58 c 1.4,0.27 2.79,0.44 4,0.44 h 3.44 l -0.72,-12 c -0.69,-11.61 -0.65,-12 1.3,-12 2.71,0 2.94,0.9 3.17,12.32 0.22,11.47 0.38,12.04 3.67,13.54 0.63,0.29 1.27,0.52 1.94,0.69 l -0.05,-0.01 c -3.97,-0.49 -5.89,-1.27 -6.98,-2.83 -1.33,-1.9 -1.51,-1.94 -1.51,-0.34 0,1.56 -0.55,1.71 -4.16,1.1 -1.07,-0.18 -2.54,-0.51 -4.1,-0.91 z m 52.4,-59.28 c -0.04,-3.49 -2.93,-12.21 -6.56,-18.7 -2.41,-4.31 -4.13,-6.81 -6.02,-8.29 0.68,0.46 1.3,0.99 1.85,1.6 2.2,2.44 4.07,2.8 3.23,0.61 -0.57,-1.47 0.44,-1.82 2.17,-1.36 -0.53,0.58 0.05,2.93 1.12,3.86 1.49,1.3 6.17,12.13 7.53,17.45 0.81,3.11 1.78,5.95 2.22,6.51 -1.16,-0.61 -2.09,-1.25 -2.47,-1.75 -1.06,-1.39 -1.44,-1.45 -2.13,-0.33 -0.09,0.14 -0.42,0.28 -0.94,0.4 z m -62.58,11.51 c -0.05,0.43 -0.13,0.96 -0.23,1.59 -0.82,5.02 0.41,4.54 1.72,-0.67 1.04,-4.11 1.29,-4.33 6.29,-5.5 0.47,-0.11 0.96,-0.21 1.48,-0.31 -0.33,0.08 -0.64,0.16 -0.93,0.25 -3.49,1.05 -3.97,1.63 -5.4,6.52 -1.69,5.82 -2.94,18.8 -2.17,21 -1.4,0.52 -2.89,1.14 -3.69,1.55 -0.21,0.1 -0.42,0.2 -0.63,0.31 v -5.42 c 0,-6.82 1.76,-17.09 3.23,-18.88 0.13,-0.16 0.24,-0.3 0.33,-0.44 z m 61.78,-35.55 c 1.53,0.95 3.1,2.13 4.48,3.48 2.47,2.4 3.54,1.29 1.18,-1.22 -1.96,-2.08 -2.07,-2.5 -0.66,-2.5 1.04,0 3.3,0.8 5.85,1.96 -3.54,-1.46 -3.61,-0.54 -0.25,2.83 3.95,3.95 12.81,18.57 14.06,23.19 0.63,2.34 1.61,3.71 3.28,4.52 l -0.39,-0.13 c -3.64,-1.19 -4.89,-2.07 -4.61,-3.25 0.2,-0.89 -0.21,-2.8 -0.92,-4.24 -0.7,-1.45 -1.15,-2.8 -0.99,-3 0.16,-0.21 -0.53,-1.17 -1.54,-2.13 -1.74,-1.67 -1.83,-1.66 -1.83,0.1 0,1.01 0.71,3.26 1.57,4.98 1.33,2.67 1.61,4.14 0.3,4.55 1.14,-1.14 -0.14,-4.86 -3.78,-10.86 -2.17,-3.57 -4.23,-7.39 -4.58,-8.5 -0.36,-1.11 -1.03,-2.02 -1.5,-2.02 -0.47,0 -2.13,-1.25 -3.68,-2.79 -1.8,-1.77 -4.04,-3.6 -5.99,-4.97 z m 0.99,29.79 c 4.19,0.27 6.42,0.66 10.17,1.39 1.31,0.26 2.49,0.51 3.56,0.77 -1.12,-0.24 -2.37,-0.46 -3.72,-0.66 -3.91,-0.59 -4.53,-0.46 -4.03,0.84 0.33,0.85 0.9,6.06 1.28,11.58 0.68,9.82 0.65,10.05 -1.45,10.05 -1.96,0 -2.14,-0.53 -2.14,-6.33 0,-3.49 -0.51,-8.87 -1.13,-11.96 -0.79,-3.93 -1.04,-5.12 -2.54,-5.68 z m -94.25,32.07 c 1.33,1.02 3.66,1.87 5.17,1.88 2.71,0.02 2.75,-0.07 2.75,-6.24 0,-3.44 0.44,-7.8 0.98,-9.68 0.15,-0.53 0.28,-1.04 0.38,-1.52 -0.01,0.74 -0.05,1.58 -0.14,2.48 -0.41,4.33 -0.26,4.93 1.15,4.39 1.14,-0.44 1.63,-1.87 1.64,-4.77 0.02,-3.3 0.5,-5.56 1.85,-7.32 -1.16,1.97 -1.52,4.84 -1.97,9.73 -0.48,5.19 -0.62,10.23 -0.31,11.19 0.31,0.99 1.13,1.54 2.57,1.67 -2.46,0.1 -4.17,-0.25 -4.23,-1.16 -0.06,-1 -0.18,-1 -0.58,0 -0.81,1.99 -8.17,1.51 -11.34,-0.75 l -2.81,-2 0.54,2.06 c 0.6,2.31 3.5,4.44 7.24,5.47 -3.44,-0.87 -5.65,-2.39 -7.33,-4.95 -2.04,-3.12 -2.09,-6.71 -0.32,-10.45 -0.46,1.14 -0.48,2.04 0.05,2.57 0.34,0.35 0.63,0.11 0.63,-0.53 0,-0.64 0.6,-1.17 1.33,-1.17 0.62,0 1.57,-0.8 2.29,-1.88 -2.7,4.51 -2.53,8.67 0.46,10.98 z m 36.28,-4.85 c 0.14,-0.09 0.28,-0.17 0.41,-0.25 3.9,-2.38 4.83,-2.47 5.57,-0.55 0.39,1.02 -1.12,2.22 -5.03,4.01 l -5.6,2.56 0.69,8.24 c 0.37,4.53 1.23,8.74 1.89,9.36 0.62,0.57 1.7,1.15 3,1.66 -0.24,-0.08 -0.47,-0.16 -0.7,-0.23 -4.94,-1.68 -5.11,-1.86 -5.61,-6.14 -0.44,-3.68 -0.66,-4.04 -1.32,-2.17 -0.43,1.23 -0.53,2.67 -0.21,3.18 0.75,1.21 0.01,1.69 -1.52,1.61 1.13,-0.05 1.5,-0.58 1.25,-1.62 -0.18,-0.74 -0.59,-3.55 -0.91,-6.24 l -0.57,-4.89 -3.6,0.6 c -3.3,0.56 -5.72,1 -7.48,1.4 1.15,-0.27 2.52,-0.56 4.13,-0.9 3.44,-0.71 6.25,-1.68 6.25,-2.15 0,-0.46 0.4,-0.6 0.89,-0.3 0.48,0.3 1.44,-0.12 2.12,-0.94 0.68,-0.82 1.88,-1.49 2.66,-1.49 2.56,0 7.33,-3.01 7.33,-4.63 0,-1.12 -0.51,-1.37 -1.75,-0.85 -0.44,0.18 -1.12,0.44 -1.89,0.73 z m 99.39,-30.71 c -0.73,-3.23 -0.76,-5.83 0.09,-6.87 1.16,-1.43 1.96,-11.67 0.91,-11.67 -0.41,0 -0.77,2.14 -0.79,4.75 -0.01,2.61 -0.63,5.83 -1.36,7.14 -0.33,0.59 -0.57,1.04 -0.87,1.25 l 0.56,-2.18 c 1.15,-4.4 0.32,-10.68 -1.66,-12.76 0.11,0.08 0.22,0.16 0.3,0.24 1.77,1.6 2.07,1.64 2.07,0.28 0,-2.01 -3.59,-4.56 -7.13,-5.42 2.9,0.18 5.51,0.77 6.68,1.74 2.27,1.88 4.45,7.01 4.45,10.46 0,1.75 -0.81,5.66 -1.81,8.68 z m -86.63,72.68 c 1.79,-0.71 3.38,-1.6 4.01,-2.31 1.82,-2.05 4.25,-3.36 8.47,-4.16 -0.3,0.13 -0.59,0.27 -0.9,0.42 -2.09,1.06 -4.03,2.53 -4.32,3.27 -0.28,0.75 0.17,3.67 1.01,6.49 1.45,4.89 1.3,8.07 -0.38,8.07 -0.92,0 -2.64,-4.26 -3.53,-8.75 -0.54,-2.77 -1.46,-3.63 -4.36,-3.03 z m 99.15,-26.07 c 3.8,-3.72 4.28,-4.84 3.94,-7.18 l -0.45,-3.06 -1.45,2.79 c -0.99,1.91 -2.25,3.7 -3.37,4.87 1.87,-2.09 4.04,-5.92 3.98,-7.66 -0.11,-3.75 -2.13,-8.52 -4.3,-10.37 1.16,0.97 2.66,2.86 3.55,4.51 1.61,3 1.83,3.13 1.83,1.09 0,-1.28 -0.89,-3.58 -1.97,-5.1 -1.08,-1.52 -1.74,-3 -1.45,-3.28 0.06,-0.07 0.03,-0.2 -0.07,-0.39 4.8,4.93 5.49,6.98 5.49,12.91 0,5.06 -0.01,5.41 -5.73,10.87 z m -53.21,14.19 c 2.81,-0.57 2.94,-0.9 2.94,-5.46 0,-4.21 0.27,-4.88 2,-4.88 1.74,0 2,0.67 2,5.12 v 4.64 c -2.1,0.22 -4.41,0.41 -6.94,0.58 z m 10.59,2.85 c 3.19,-1.19 7.11,-2.11 9.82,-2.05 1.29,0.02 4.03,-0.49 6.73,-1.22 -2.26,0.92 -2.61,1.97 -3.65,5.55 -0.57,1.94 -1.73,4.63 -2.95,6.92 0.78,-1.81 1,-3.21 0.71,-4.3 -0.57,-2.2 -0.61,-2.19 -2.49,0.59 -1.05,1.55 -2.5,4.17 -3.22,5.82 -0.89,2.04 -2.98,5.03 -5.42,7.99 3.8,-5.02 7.27,-11.29 9.8,-17.93 0.92,-2.42 0.79,-2.56 -2.25,-2.54 -1.63,0 -4.67,0.52 -7.08,1.17 z m -61.84,-76.23 c 0.3,-0.28 0.57,-0.54 0.8,-0.79 -0.54,1.29 -1.37,2.96 -2.52,5.05 -1.95,3.56 -3.6,6.78 -4,7.81 -0.02,-0.09 -0.03,-0.18 -0.02,-0.28 0.4,-3.04 -0.15,-5.82 -1.04,-5.27 -0.34,0.21 -0.83,1.05 -1.3,2.15 1.7,-4.09 4.57,-9.46 6.32,-11.54 0.84,-1 1.51,-1.55 2.07,-1.68 -1.21,0.41 -2.85,2.56 -3.46,4.84 -0.62,2.31 0.47,2.21 3.15,-0.29 z m 4.2,16.04 c 0.09,0 0.18,0 0.27,0 3.16,0 3.74,0.34 3.83,2.25 0.09,2.04 0.21,1.98 1.22,-0.58 l 1.12,-2.84 15.41,0.4 -14.36,0.27 -0.5,4.5 c -0.68,6.11 -3.37,6.29 -3.81,0.25 -0.28,-3.85 -0.37,-4.22 -3.18,-4.25 z m 46.06,74.39 c -0.35,1.22 -0.68,2.27 -0.97,3 -1.44,3.61 -0.64,4.57 1.69,2.04 1.2,-1.31 3.3,-6.89 4.56,-11.68 -2.23,10.6 -5.77,19.73 -7.39,18.72 -1.52,-0.94 -1.12,-4.76 0.94,-9.03 0.38,-0.79 0.78,-1.85 1.17,-3.05 z M 1475.8,90 c -0.39,-9.09 -1.8,-9.09 -1.8,0 0,4.21 0.42,7 1.05,7 0.66,0 0.94,-2.6 0.75,-7 z m 39.2,6.84 c 0,-2.07 -2.26,-1.48 -7.87,2.18 2.36,-1.66 4.4,-3.2 5.55,-4.24 2.17,-1.99 4.33,-1.72 4.31,0.53 0,0.65 -1.86,2.25 -4.12,3.54 -2.5,1.43 -5.84,3.71 -8.6,5.78 2.42,-1.85 5.26,-3.84 7.48,-5.14 1.79,-1.06 3.25,-2.25 3.25,-2.65 z m -35.92,23.84 c -1.29,-1.29 -1.43,0.53 -0.32,4.32 l 0.73,2.5 0.33,-2.87 c 0.19,-1.58 -0.15,-3.36 -0.74,-3.95 z M 1488,24.69 c 0,-0.52 -0.68,-0.37 -1.5,0.31 -0.82,0.68 -1.49,1.98 -1.47,2.87 0.03,1.37 0.27,1.32 1.5,-0.31 0.81,-1.07 1.47,-2.36 1.47,-2.87 z m 23.43,88.92 c 5.8,0.04 9.95,0.2 10.09,0.42 0.13,0.21 0.02,1.28 -0.24,2.77 0.11,-0.83 0.18,-1.58 0.2,-2.21 0.01,-0.39 -4.16,-0.77 -10.05,-0.98 z m 21.96,-87.55 c 1.71,0.93 3.33,1.92 4.61,2.84 1.61,1.16 3.66,2.92 5.77,4.9 -3.44,-3.03 -7.14,-5.83 -10.38,-7.74 z m -94.16,64.35 c -1.26,0.41 -1.8,0.8 -1.95,1.26 -0.31,0.92 2.62,3.38 5.95,5.4 -0.67,-0.38 -1.33,-0.79 -1.96,-1.23 -4.66,-3.2 -5.82,-4.25 -2.04,-5.43 z m 94.88,40.91 c -2.58,3.74 -3.41,4.68 -4.47,5.57 -0.05,0.03 -0.09,0.07 -0.13,0.1 0.35,-0.44 0.76,-0.95 1.24,-1.53 1.23,-1.47 2.35,-2.85 3.36,-4.14 z m 35.1,-64.29 c -1.83,-1.68 -3.21,-3.36 -3.21,-3.94 0,-0.67 -1.17,-3.78 -2.61,-6.9 -0.22,-0.5 -0.44,-0.99 -0.64,-1.48 l 0.41,0.87 c 1.53,3.26 2.79,6.48 2.81,7.17 0.01,0.51 1.35,2.24 3.24,4.28 z m -70.1,42.25 c 0.01,-0.04 0.03,-0.07 0.05,-0.11 0.1,0.39 2.73,0.65 6.15,0.76 -4.39,0.04 -6.37,-0.18 -6.2,-0.65 z m -50.7,-51.23 c 2.26,-0.8 4.43,-1.47 5.54,-1.69 1.53,-0.31 2.27,-0.44 2.54,0.01 -0.95,-0.31 -3.43,0.18 -7.45,1.48 -0.21,0.07 -0.42,0.13 -0.63,0.2 z m -23.52,14.65 c 0.04,-0.07 0.07,-0.13 0.11,-0.2 1.22,-2.29 7,-6.5 8.91,-6.5 0.01,0 0.02,0 0.02,0 -1.91,0.11 -7.18,3.9 -9.04,6.7 z m 7.78,-11.12 c 1.25,-0.82 2.45,-1.88 3.46,-3 -1.01,1.13 -2.21,2.18 -3.46,3.01 -4.61,3.04 -8.65,6.87 -10.87,9.98 2.28,-3.34 5.94,-6.75 10.87,-9.99 z m 97,78.4 c 2.33,-0.54 6.8,-3.47 11.42,-7.26 -4.72,3.94 -9.28,6.99 -11.42,7.26 z m 21.01,-84.22 c 1.61,0.01 2.53,-1 3.78,-3.31 -0.96,1.78 -1.47,2.78 -2.27,3.17 -0.4,0.19 -0.88,0.23 -1.51,0.14 z m -72.91,-30.02 c -1.6,1.63 -3.42,2.51 -4.27,2.24 0.72,0.15 2.21,-0.62 4.27,-2.24 z m 54.39,82.36 c 1.69,-0.36 3.69,-0.78 5.17,-1.08 0.17,-0.04 0.34,-0.07 0.51,-0.11 -1.57,0.45 -3.45,0.84 -5.68,1.19 z m 19.54,-81.48 c -3.24,-0.24 -6.74,0.02 -7.64,0.92 0.98,-0.98 4.39,-1.23 7.64,-0.92 z m 19.35,70.66 c -3.38,3.31 -6.02,6.38 -6.05,7.09 0,-0.73 2.7,-3.89 6.05,-7.09 z m -112.6,-47.41 c -1.08,1.08 -3.03,1.8 -7.44,3.26 4.23,-1.41 6.34,-2.27 7.44,-3.26 z M 1569.92,94 c -0.02,0 -0.05,0 -0.08,0 -0.46,0 -0.84,-4.74 -0.84,-10.56 0,5.9 0.4,10.4 0.92,10.56 z m -102.72,29.53 c -0.21,0.16 -0.16,0.6 0.09,1.23 -0.19,-0.47 -0.29,-0.87 -0.29,-1.16 0,-0.12 0.95,-0.48 2.35,-0.91 -1.16,0.41 -2.03,0.75 -2.15,0.84 z m 85.55,-16.34 c 2.58,-0.79 4.66,-1.34 6.18,-1.64 -1.41,0.31 -3.41,0.85 -6.18,1.64 z M 1449.94,83.75 c -1.34,0.45 -2.74,0.85 -4.13,1.18 0.56,-0.15 1.16,-0.32 1.79,-0.5 z M 1553.58,62 c 0.02,0 0.05,0 0.07,0 0.95,0 3.3,1.02 5.57,2.26 -2.22,-1.2 -4.55,-2.19 -5.64,-2.26 z m -20.26,-11.1 c -1.44,-0.36 -3.2,-0.88 -5.32,-1.56 -0.35,-0.11 -0.71,-0.24 -1.06,-0.37 0.89,0.32 1.96,0.66 3.06,0.98 1.17,0.34 2.35,0.67 3.32,0.95 z m -62.82,-2.27 c -1.78,0.3 -3.54,0.43 -4.9,0.35 1.39,0.03 3.17,-0.1 4.9,-0.35 z m 31.31,53.96 c -2.09,1.38 -3.88,2.48 -5.48,3.36 1.61,-0.92 3.52,-2.1 5.48,-3.36 z M 1460.45,45.3 c -0.18,0.48 -0.36,0.99 -0.51,1.51 -0.15,0.5 -0.29,0.94 -0.44,1.33 0.01,-0.03 0.02,-0.07 0.03,-0.1 0.18,-0.75 0.51,-1.69 0.92,-2.74 z m 101.52,60.34 c 0,0.01 0,0.02 0,0.03 -0.02,0.43 -0.98,2.3 -2.41,4.79 1.44,-2.51 2.39,-4.37 2.41,-4.82 z m -21.16,-48.35 c 0.6,0.57 0.93,1.18 1.02,1.85 0.09,0.58 0.24,1.2 0.44,1.75 -0.2,-0.55 -0.35,-1.16 -0.44,-1.74 -0.09,-0.67 -0.43,-1.29 -1.02,-1.86 z M 1545,23.93 c -0.61,0.18 -1.18,0.37 -1.68,0.58 l 0.26,-0.11 c 0.43,-0.18 0.91,-0.33 1.42,-0.47 z m 20,80.44 c 0,0.01 0,0.01 0,0.01 0,0.91 -0.57,2.63 -1.51,4.76 0.94,-2.13 1.51,-3.86 1.51,-4.77 z m -39.77,11.24 c 0.02,-0.09 0.05,-0.18 0.1,-0.28 -0.03,0.09 -0.07,0.18 -0.1,0.28 z"
       fill="#0f192d"
       id="path2" />
    <path
       d="m 1511.79,142.3 -0.29,9.2 -11.55,0.28 c -6.36,0.15 -11.87,-0.03 -12.25,-0.42 -1.12,-1.11 -0.83,-19.36 0.3,-19.36 0.55,0 1,-1.15 1,-2.57 0,-6.66 5.59,-11.34 11.89,-9.95 4.35,0.95 7.11,4.07 7.11,8.02 0,2.43 0.6,3.75 2.04,4.52 1.85,0.99 2.01,1.9 1.75,10.28 z M 1480.6,76.67 c -3.34,2.87 -5.56,2.94 -8.97,0.26 -2.01,-1.59 -2.63,-2.96 -2.63,-5.85 0,-6.63 6.6,-10.05 11.42,-5.9 3.78,3.25 3.86,8.32 0.18,11.49 z m 48.77,16.26 c -3.8,2.98 -7.87,2.3 -11.09,-1.86 -3.03,-3.91 0.88,-11.07 6.04,-11.07 6.93,0 10.35,8.76 5.05,12.93 z M 1493,128.59 v 3.51 l 5.75,-0.3 c 5.16,-0.27 5.78,-0.54 6.08,-2.63 0.67,-4.75 -5.06,-7.72 -9.9,-5.13 -1.34,0.72 -1.93,2.09 -1.93,4.55 z m 4.46,17.18 c 0.87,2.26 2.94,0.83 3.62,-2.52 0.77,-3.77 -0.19,-5.58 -2.7,-5.06 -1.86,0.38 -2.29,3.98 -0.92,7.58 z"
       fill="#e68236"
       id="path3" />
    <path
       d="M 0,89.5 V 0 h 812 812 V 89.5 179 H 812 0 Z m 607.6,73.67 c 6.86,-4.97 11.17,-11.63 16.59,-25.67 1.7,-4.4 4.61,-11.28 6.45,-15.29 1.85,-4.01 3.36,-7.75 3.36,-8.31 0,-0.57 1.12,-3.49 2.5,-6.49 1.38,-3.01 2.5,-6.1 2.5,-6.88 0,-0.78 0.42,-1.67 0.93,-1.98 0.51,-0.32 1.45,-2.26 2.08,-4.31 0.64,-2.06 1.76,-5.09 2.49,-6.74 0.73,-1.65 3.58,-8.51 6.33,-15.25 L 655.84,60 h -12.3 c -11.95,0 -12.32,0.07 -12.81,2.25 -0.28,1.24 -1.95,6.07 -3.72,10.75 -1.76,4.68 -3.54,9.85 -3.95,11.5 -0.41,1.65 -1.49,4.44 -2.4,6.2 -0.91,1.76 -1.66,3.84 -1.66,4.63 0,2.2 -4.86,12.67 -5.88,12.67 -0.87,0 -2.15,-2.23 -2.66,-4.62 -0.14,-0.62 -0.94,-2.65 -1.79,-4.5 -0.86,-1.86 -2.07,-5.41 -2.71,-7.88 -0.64,-2.47 -1.51,-4.95 -1.95,-5.5 -0.44,-0.55 -1.27,-2.57 -1.85,-4.5 -1.62,-5.4 -5.67,-16.26 -6.97,-18.66 -0.77,-1.42 -2.55,-2.39 -5.24,-2.85 -4.03,-0.68 -19.95,0.27 -19.95,1.19 0,0.26 1.17,3.48 2.6,7.15 9.65,24.71 11.91,30.32 14.39,35.67 1.52,3.3 4,8.93 5.49,12.5 1.5,3.57 3.37,7.72 4.16,9.22 0.79,1.5 2.05,4.74 2.79,7.22 2.36,7.84 -1.32,14.37 -9.67,17.14 -3.77,1.25 -5.49,1.36 -7.93,0.51 -6.57,-2.29 -6.83,-2 -6.83,7.41 v 8.5 l 14.35,0.91441 c 14.13134,0.90049 14.4,-0.95441 18.25,-3.74441 z m 813.04,-78.59 c 1.99,3.04 -4.3,-6.57 0,0 z M 762.56,134.6 c 12.86,-5.23 19.89,-15.16 19.9,-28.1 C 782.47,90.3 776.7,83.68 756,76.12 738.31,69.65 735.73,68.47 733.43,65.74 730.29,62 730.28,57.41 733.41,53.5 c 2.41,-3 2.42,-3 12.75,-2.91 9.56,0.07 10.96,0.35 18.53,3.64 9.33,4.06 9.24,4.09 13.1,-4.37 3.98,-8.72 3.93,-9.45 -0.85,-11.89 -14.54,-7.42 -35.56,-9.29 -48.87,-4.36 -9.8,3.63 -15,8.46 -18.38,17.08 -3.21,8.18 -3.38,13.38 -0.69,20.59 2.32,6.18 9.21,13.66 14.81,16.05 8.24,3.52 16.94,6.67 18.42,6.67 2.21,0 10.82,4.11 14.22,6.78 2.33,1.84 2.88,3.06 2.95,6.65 0.13,5.94 -2.86,9.11 -9.98,10.59 -8.92,1.85 -17.74,-0.69 -37.44,-10.77 -0.61,-0.31 -9.42,16.7 -8.86,17.09 9.35,6.53 21.12,11.39 30.86,12.74 8.89,1.24 22.31,0.07 28.58,-2.48 z m 91.94,-1.07 c 7.97,-3.87 13.17,-8.58 11.85,-10.74 -0.47,-0.77 -3,-3.35 -5.62,-5.74 l -4.77,-4.34 -7.08,3.65 c -8.3,4.26 -14.16,4.73 -21.25,1.7 -4.08,-1.75 -10.63,-8.65 -10.63,-11.19 0,-0.46 12.49,-0.96 27.75,-1.1 l 27.75,-0.27 0.3,-6.5 c 0.78,-16.51 -8.28,-31.46 -22.31,-36.83 -11.37,-4.35 -28.82,-2.46 -39.32,4.25 -9.76,6.25 -16.32,18.73 -16.56,31.49 -0.22,11.26 7.23,27.45 14.55,31.66 12.28,7.05 17.98,8.52 30.34,7.81 6.47,-0.37 9.34,-1.1 15,-3.85 z m 87.4,0.36 c 5.86,-3.19 12.1,-8.53 12.1,-10.35 0,-0.93 -8.97,-8.59 -12.68,-10.84 -0.82,-0.5 -2.54,0.12 -4.57,1.66 -4,3.03 -10.74,4.91 -14.46,4.05 -5.45,-1.26 -11.24,-5.4 -13.35,-9.52 -3.4,-6.68 -3.61,-12.74 -0.65,-19.2 4.63,-10.13 14.03,-13.94 23.57,-9.56 2.83,1.3 5.15,2.59 5.16,2.86 0,0.28 0.39,1.12 0.86,1.86 0.66,1.03 2.3,0.28 7.24,-3.34 3.51,-2.58 7.05,-5.79 7.88,-7.14 1.44,-2.35 1.33,-2.59 -2.86,-6.35 -6.27,-5.63 -14.12,-8.02 -26.3,-8.02 -9.83,0 -15.38,1.34 -23.34,5.65 -3.81,2.07 -10.5,8.39 -10.5,9.93 0,0.65 -0.67,1.73 -1.5,2.42 -2.36,1.95 -5.5,13.61 -5.49,20.36 0.01,7.09 2.76,17.05 6.04,21.83 5.52,8.07 16.02,15.34 24.45,16.93 2.2,0.42 8.23,0.55 13.4,0.29 8.08,-0.41 10.19,-0.9 15,-3.52 z m 63.67,0.82 c 2.71,-1.38 6.02,-3.68 7.35,-5.11 3.63,-3.89 5.08,-3.37 5.08,1.83 v 4.43 l 9.66,0.32 c 5.42,0.18 10.24,-0.12 10.98,-0.68 1.07,-0.8 1.28,-8.12 1.09,-37.5 L 1039.5,61.5 1028.25,61.22 1017,60.93 v 21.59 c 0,23.95 -0.79,27.74 -6.7,32.1 -5.31,3.92 -13.94,4.17 -18.12,0.52 -4.81,-4.19 -5.29,-6.92 -5.18,-29.44 0.06,-11.66 0.08,-22 0.05,-22.98 -0.05,-1.62 -1.08,-1.76 -11.3,-1.5 l -11.25,0.28 -0.28,21 c -0.48,35.7 1.06,41.83 13.18,52.2 4.73,4.04 20.24,4.04 28.17,0.01 z m 173.59,-1.43 c 3.79,-2.06 8.1,-4.99 9.57,-6.52 l 2.67,-2.79 -5.41,-5.48 c -2.98,-3.02 -6.04,-5.49 -6.8,-5.49 -0.76,0 -2.58,0.85 -4.04,1.88 -3.61,2.56 -11.47,5.12 -15.72,5.12 -4.25,0 -10.08,-2.33 -13.26,-5.3 -2.13,-1.98 -5.17,-6.77 -5.17,-8.13 0,-0.3 12.49,-0.66 27.75,-0.8 l 27.75,-0.27 0.29,-9.17 c 0.26,-8.49 0.05,-9.66 -2.83,-15.75 -1.71,-3.62 -3.52,-6.58 -4.03,-6.58 -0.51,0 -0.95,-0.56 -0.97,-1.25 -0.06,-2.04 -8.49,-8.08 -14.65,-10.5 -11.29,-4.43 -28.47,-2.65 -38.92,4.03 -9.99,6.39 -17.39,20.1 -17.39,32.21 0,15.86 8.07,28.64 22.38,35.48 7.42,3.55 10.23,4 21.5,3.5 9.65,-0.43 10.86,-0.73 17.28,-4.19 z M 125,133.91 c 7.01,-1.91 13.1,-4.3 19,-7.45 l 2.5,-1.34 0.19,-20.34 C 146.8,93.59 146.56,83.9 146.16,83.25 145.3,81.86 142.34,81.57 131.75,81.82 L 124,82 v 14.97 14.98 l -3.25,1.73 c -2.31,1.23 -6.36,1.85 -13.97,2.13 -10.2,0.39 -11.01,0.27 -17,-2.54 -12.03,-5.66 -16.76,-13.1 -17.55,-27.62 -0.66,-12.08 1.39,-18.18 8.49,-25.31 4.2,-4.21 6.53,-5.65 11.86,-7.29 12.25,-3.79 25.49,-1.78 35.45,5.37 l 4.76,3.43 2.88,-3.68 c 3.18,-4.04 6.15,-8.46 8,-11.91 1.24,-2.31 1.12,-2.55 -2.89,-5.81 -2.04,-1.66 -9.72,-5.13 -16.78,-7.57 -4.91,-1.7 -9.46,-2.35 -18.58,-2.66 C 94.51,29.84 92.55,30.06 85.08,32.42 80.53,33.85 74.8,36.21 72.34,37.65 66.61,41 57.48,49.34 55.73,52.81 c -0.75,1.48 -1.82,3.59 -2.38,4.69 -0.55,1.1 -1.78,3.54 -2.73,5.42 -3.59,7.14 -4.4,27.29 -1.49,37.08 1.02,3.42 3.62,9.12 6.32,13.87 2.25,3.95 11.78,13.05 15.93,15.21 6.76,3.52 13.93,6.06 19.62,6.94 8.3,1.28 25.46,0.22 34,-2.11 z m 139.41,-0.17 c 6.45,-2.45 15.32,-9.78 19.13,-15.8 7.22,-11.44 7.14,-29.24 -0.19,-41.1 C 275.93,64.83 264.12,59.04 247,59.02 233.51,59 224.26,62.56 216.5,70.77 c -11.68,12.36 -13.89,32.25 -5.21,46.75 4.59,7.67 8.73,11.28 18.21,15.87 8.44,4.09 24.62,4.25 34.91,0.35 z m 102.66,0.1 c 5.97,-3.1 14.02,-12.62 16.93,-20 2.14,-5.43 2.5,-7.92 2.47,-17.34 -0.02,-9.14 -0.42,-11.99 -2.36,-16.86 -3.33,-8.35 -11.66,-16.47 -19.63,-19.14 -11.65,-3.9 -26.26,-1.62 -32.56,5.08 -1.25,1.33 -2.63,2.42 -3.07,2.42 -0.44,0 -0.93,-8.66 -1.08,-19.25 L 327.5,29.5 316.25,29.22 305,28.93 v 52.96 52.95 l 3.05,0.67 c 3.91,0.86 14.91,0.36 17.27,-0.78 1.38,-0.66 1.75,-1.81 1.54,-4.76 -0.15,-2.14 0.05,-4.21 0.45,-4.61 0.4,-0.4 2.41,0.85 4.46,2.78 4.95,4.65 8.98,7.09 13.23,8 5.77,1.23 17.68,-0.01 22.07,-2.3 z m 70.43,-0.06 c 2.2,-1.1 5.26,-3.18 6.8,-4.62 2.19,-2.05 2.98,-2.33 3.62,-1.28 0.46,0.74 0.66,2.08 0.44,2.98 -0.89,3.77 1.05,4.5 11.25,4.26 5.37,-0.13 10.13,-0.46 10.58,-0.74 1.01,-0.62 0.94,-45.95 -0.08,-53.11 C 469.31,75.65 462.94,65 460.38,65 459.62,65 459,64.56 459,64.03 c 0,-0.53 -3.83,-2.16 -8.5,-3.62 -7.34,-2.29 -9.77,-2.59 -17.75,-2.2 -13.82,0.66 -30.54,6.11 -29.4,9.58 1.49,4.57 4.28,11.84 4.94,12.89 0.77,1.22 2.3,0.91 10.21,-2.08 2.41,-0.91 7.48,-1.53 12.76,-1.56 8.54,-0.04 8.86,0.05 12.25,3.21 2.49,2.33 3.55,4.24 3.73,6.75 l 0.26,3.5 -8.5,0.22 c -15.37,0.39 -25.54,2.24 -31.22,5.68 -8.06,4.88 -9.28,7.17 -9.28,17.5 0,8.07 0.22,9.05 2.83,12.47 3.71,4.86 9.84,8.84 15.01,9.74 6.22,1.09 16.63,-0.06 21.16,-2.33 z m 644.92,2.61 c 1.36,-0.52 1.59,-3.36 1.68,-20.75 0.05,-11.08 0.39,-21.16 0.75,-22.4 0.36,-1.24 2.39,-4.05 4.52,-6.24 4.14,-4.26 8.98,-6.12 16.57,-6.36 4.14,-0.13 4.49,-0.36 5.29,-3.45 0.47,-1.82 0.73,-6.32 0.56,-10 l -0.29,-6.69 -5.02,-0.29 c -6.06,-0.36 -12.92,2.38 -18.43,7.36 -2.06,1.87 -4.04,3.1 -4.4,2.75 -0.36,-0.36 -0.65,-2.62 -0.65,-5.02 v -4.37 l -10.75,0.29 -10.75,0.28 v 37 37 l 4.5,0.6 c 6.43,0.86 14.57,1 16.42,0.29 z m 195.33,-0.73 c 1.4,-0.87 1.79,-57.06 0.59,-85.91 L 1277.69,34 H 1266.34 1255 v 50.94 50.93 l 3.25,0.39 c 5.27,0.64 18.15,0.23 19.5,-0.6 z m -1090.99,-0.29 2.26,-0.61 -0.26,-52.63 -0.26,-52.63 h -11 -11 v 52.45 52.46 l 2.5,0.7 c 3.18,0.88 14.79,1.05 17.76,0.26 z m 325.56,-0.62 c 1.57,-1.15 1.68,-5.25 1.44,-53.25 l -0.26,-52 h -11 -11 l -0.26,52 c -0.24,48 -0.13,52.1 1.44,53.25 1.03,0.76 4.9,1.25 9.82,1.25 4.92,0 8.79,-0.49 9.82,-1.25 z m 44.72,-0.29 c 0.62,-0.75 0.88,-20.19 0.72,-53.07 L 557.5,29.5 h -11 -11 l -0.26,52.67 c -0.24,49.55 -0.15,52.71 1.5,53.16 3.6,0.99 19.31,0.31 20.3,-0.87 z M 1351,95 l 0.5,-40.5 15.79,-0.28 c 12.93,-0.22 15.9,-0.54 16.37,-1.77 0.31,-0.82 0.25,-5.31 -0.13,-9.97 L 1382.82,34 h -44.95 -44.94 l 0.28,9.75 0.29,9.75 16.5,0.5 16.5,0.5 0.26,40.78 0.26,40.78 11.74,-0.28 11.74,-0.28 z M 817.43,88.43 c 1.97,-7.84 9.5,-12.08 19.82,-11.14 5.55,0.5 6.59,0.96 9.55,4.19 2.38,2.6 3.23,4.39 3.01,6.32 l -0.31,2.7 -16.36,0.28 -16.37,0.27 z M 1142,88.54 c 0,-1.47 1.5,-4.04 3.75,-6.4 2.95,-3.1 4.76,-4.09 8.5,-4.65 7.14,-1.08 13.02,0.13 16.04,3.3 2.85,3 5.04,7.87 4.16,9.29 -0.31,0.51 -7.74,0.92 -16.51,0.92 H 1142 Z M 241.5,116.8 c -9.58,-3.34 -14.94,-16.22 -11.2,-26.93 4.37,-12.57 19.66,-16.3 29.35,-7.16 3.59,3.39 6.35,10.02 6.35,15.27 0,13.07 -12.8,22.9 -24.5,18.82 z m 97.86,-0.13 c -4.03,-1.51 -8.64,-6.22 -10.43,-10.67 -2.1,-5.22 -1.68,-14.68 0.87,-19.64 2.48,-4.83 10.31,-9.36 16.15,-9.36 5.4,0.01 12.88,5.08 15.95,10.81 1.59,2.97 1.66,16.26 0.1,19.27 -4.6,8.92 -13.9,12.86 -22.64,9.59 z m 85.06,3.44 c -1.69,-1.03 -3.65,-3.25 -4.34,-4.93 -1.09,-2.63 -1.02,-3.48 0.54,-6.11 2.37,-4.02 6.89,-5.46 17.38,-5.52 l 8.5,-0.05 0.3,5.2 c 0.27,4.73 0.02,5.44 -2.83,8 -5.92,5.29 -14.12,6.73 -19.55,3.41 z"
       fill="#ffffff"
       id="path4"
       sodipodi:nodetypes="ccccccccccccscsccsccsccssssccsscccscccscccscscccsccccccccscccsccccccsccccccsccccccccccsccsccccccccscsccccccccscccccccscccccccccccccscscsccccscccscccccccccccccccccccccccccccccccccccccccccccccccccscccccccccsccccccccccsscccccccccccscccccsccccccccscccccccccccccccccccccccccccscccscsccccccccccccccccccccccccccccccccccsccccscscccscccccccccccccccc" />
  </g>
  <text
     xml:space="preserve"
     style="font-style:italic;font-variant:normal;font-weight:bold;font-stretch:normal;font-size:33.4094px;font-family:'Segoe UI';-inkscape-font-specification:'Segoe UI, Bold Italic';font-variant-ligatures:normal;font-variant-caps:normal;font-variant-numeric:normal;font-variant-east-asian:normal;writing-mode:lr-tb;direction:ltr;display:block;fill:#ffffff;fill-opacity:1;stroke:#ffffff;stroke-width:0.134315"
     x="613.42023"
     y="176.52344"
     id="text33-3"
     transform="scale(1.0364419,0.96483942)"><tspan
       id="tspan33-2"
       style="font-style:italic;font-variant:normal;font-weight:bold;font-stretch:normal;font-size:33.4094px;font-family:'Segoe UI';-inkscape-font-specification:'Segoe UI, Bold Italic';font-variant-ligatures:normal;font-variant-caps:normal;font-variant-numeric:normal;font-variant-east-asian:normal;fill:#e68236;stroke-width:0.134315"
       x="613.42023"
       y="176.52344"
       sodipodi:role="line">Transforming Risk into Competitive Advantage</tspan></text>
  <path
     fill="#ffffff"
     d="M 1588.3787,-18.675679 V 184.78317 Z"
     id="path2-8"
     sodipodi:nodetypes="ccc"
     style="display:block;stroke-width:0.155679" />
  <rect
     style="display:block;fill:#ffffff;stroke:#ffffff;stroke-width:0.179149;stroke-dasharray:none"
     id="rect2-1"
     width="41.0938"
     height="2.6538796"
     x="1547.5022"
     y="-35.688721"
     transform="scale(1,-1)" />
  <rect
     style="display:block;fill:#ffffff;stroke:#ffffff;stroke-width:0.179149;stroke-dasharray:none"
     id="rect2-5"
     width="41.0938"
     height="2.6538796"
     x="1551.0635"
     y="-34.027145"
     transform="scale(1,-1)" />
  <rect
     style="display:block;fill:#ffffff;stroke:#ffffff;stroke-width:0.119317;stroke-dasharray:none"
     id="rect2-2"
     width="21.192413"
     height="2.2827249"
     x="1540.3484"
     y="39.652218" />
  <path
     fill="#0f192d"
     d="m 1430.6578,88.544383 c 2.2115,-6.902966 8.671,-12.161927 14.9026,-16.383862 4.8589,-3.291958 5.7846,-7.199045 8.204,-11.799907 2.1135,-3.975983 4.6191,-7.77701 7.487,-11.358011 7.1888,-8.98899 19.2421,-18.918574 30.555,-23.585571 3.76,-1.54703 7.7381,-2.63264 11.8253,-3.227185 6.6771,-0.988081 11.9106,-0.918136 18.3791,-0.896701 13.1003,0.04345 21.6563,1.525189 32.5721,8.264406 2.1793,1.345454 4.919,2.756593 7.2132,4.2149 4.633,-2.295311 10.1968,-3.696818 15.489,-2.752768 2.1862,-0.02124 4.8891,0.558826 6.4421,1.946876 2.6059,2.330128 4.5858,7.711939 4.5372,10.946113 -0.059,4.018455 -1.7941,9.574485 -3.2183,13.463792 l -0.6566,2.118746 c 1.776,3.378388 3.3304,7.011 4.7393,10.526068 0.6637,1.655116 1.0724,3.608659 2.0144,5.14364 0.9297,1.513371 2.437,2.890804 3.724,4.178967 5.7924,5.804452 9.5537,8.511898 9.8336,16.665981 0.07,2.018864 0.2369,4.387503 -0.5416,6.305373 -1.6265,4.00129 -10.8492,11.06501 -13.9899,15.45596 -0.9876,1.38238 -1.2123,3.52841 -1.8065,5.09327 -0.8023,2.11221 -1.8191,4.20442 -2.9066,6.21376 -2.1529,3.97536 -4.5246,7.87665 -7.3675,11.49692 -6.945,8.84046 -18.8645,18.95143 -29.9239,23.4408 -1.9266,0.78282 -8.1631,3.03613 -10.1694,2.4867 -0.3264,-0.0888 -0.52,-0.26917 -0.6565,-0.54327 -0.494,-0.99148 -0.1388,-2.89167 0.3483,-3.83993 1.0721,-2.08665 4.8653,-4.05229 6.7667,-5.64999 1.487,-1.24952 2.7809,-2.5904 4.0613,-4.00537 3.1033,-3.45097 5.805,-7.17485 8.0631,-11.11231 1.2418,-2.18913 2.2956,-4.43381 3.4714,-6.63887 0.7659,-2.31011 2.2967,-4.87224 2.6798,-7.16027 0.2994,-1.78773 -5.1943,-1.02888 -6.1942,-0.92764 -2.4833,0.43363 -4.7146,1.02321 -7.0657,1.83354 -3.4616,1.19321 -3.6417,3.30122 -4.2291,6.1998 -0.6248,3.0828 -1.4968,6.17857 -2.2481,9.24805 -0.6933,2.63362 -3.1883,11.01847 -5.4684,12.40874 -2.5278,0.38152 -0.9183,-5.82161 -0.4699,-7.01927 2.6014,-6.10685 4.5579,-12.55766 4.9929,-19.10874 -0.063,-0.0197 -0.126,-0.0402 -0.1887,-0.0614 -3.7602,-1.26927 -28.3608,-1.29149 -33.2763,-0.74144 -2.0869,0.23348 -3.8866,0.73897 -5.7996,1.5072 -1.775,1.08567 -3.587,2.07047 -4.7792,3.69645 l -0.063,0.0851 c -0.084,4.03648 1.9705,8.14433 2.2149,12.17071 0.058,0.95194 0.2169,3.55469 -1.387,3.49667 -1.2401,-0.68157 -2.2926,-4.21156 -2.7288,-5.49813 -0.4652,-1.69525 -1.0215,-4.84621 -1.7764,-6.31736 l -0.2868,-0.3509 c -0.5521,-0.49549 -0.8132,-0.56746 -1.5261,-0.83923 -0.4069,0.0166 -1.0025,-0.0257 -1.4248,-0.0429 -2.6982,0.72341 -6.294,1.80525 -8.7722,2.90291 1.5612,5.69446 9.315,13.42861 13.8235,17.72044 1.2972,1.23346 3.9613,4.25724 3.7134,5.93272 -0.1011,0.6865 -0.2008,1.6829 -0.8365,2.15454 -2.9035,0.39758 -18.5683,-7.53042 -21.0757,-9.59732 -1.0373,-0.8544 -2.8115,-2.35085 -3.9197,-3.34972 -2.6737,-2.40891 -5.5835,-4.73015 -8.853,-6.4686 -3.7702,-1.98417 -8.2458,-2.03233 -12.4165,-3.06948 -13.9205,-3.46086 -12.9633,-15.62687 -8.3808,-25.27198 0.5562,-1.17087 2.4291,-3.23035 2.7017,-4.32491 0.6175,-2.47804 -0.1241,-6.33871 -1.2132,-8.70735 -0.6896,-1.32002 -3.4444,-1.73105 -4.8872,-2.04466 -4.0267,-0.87541 -6.7573,-2.27458 -8.9252,-5.522822 -2.1258,-3.059711 -2.2037,-5.71629 -1.3254,-9.101348 z"
     id="path3-8"
     style="display:block;stroke-width:0.130788"
     sodipodi:nodetypes="cccccccccccccccccscccccccccccccsccccccccccccsccccccccsccccccccccc" />
  <path
     fill="#ffffff"
     d="m 1498.2206,126.07916 c 0.1913,-0.01 0.3824,-0.0147 0.5736,-0.0151 0.5556,9e-4 1.0903,0.11754 1.4796,0.49845 0.2495,0.24126 0.3685,0.5676 0.3242,0.89331 -0.079,0.63982 -0.5666,1.06852 -1.075,1.46127 -1.9632,0.52759 -3.3694,-1.7271 -1.3024,-2.83798 z"
     id="path71-5"
     style="display:block;stroke-width:0.130788"
     sodipodi:nodetypes="cccccc" />
  <path
     fill="#ffffff"
     d="m 1449.496,86.673544 c 0.4474,-4.395655 0.2417,-11.125512 4.393,-14.211771 2.2077,-1.64141 15.7936,-6.946178 17.6516,-5.177962 0.2403,0.923555 -1.41,3.412341 -1.6895,4.502458 -0.3124,1.217662 -0.6243,2.490021 -0.8746,3.716942 -1.0354,5.307484 -1.5558,10.684731 -1.5549,16.071847 -6e-4,1.284084 -0.038,3.086876 0.134,4.33664 -4.0994,1.321001 -12.5995,4.198592 -16.7317,3.218124 -0.2825,-0.160513 -0.548,-0.323125 -0.7763,-0.543765 -1.63,-1.57671 -0.6898,-9.551759 -0.5516,-11.912513 z"
     id="path4-2"
     style="display:block;stroke-width:0.130788"
     sodipodi:nodetypes="cccscccccc" />
  <path
     fill="#ffffff"
     d="m 1569.2564,124.74453 c 2.4396,-1.04183 14.7905,-4.90582 16.7604,-4.30785 0.2355,0.0714 0.262,0.15544 0.4032,0.33669 0.1525,1.58524 -7.772,13.99843 -8.9635,15.63391 -1.4339,1.96861 -3.0105,3.85054 -4.72,5.63469 -3.76,3.97697 -16.6974,15.98937 -22.1665,16.37337 -0.451,0.0321 -0.7426,-0.0161 -1.1029,-0.26177 -0.8474,-1.3557 2.572,-4.22144 3.4501,-5.3796 4.2923,-5.66233 8.3674,-11.13946 11.3495,-17.47558 1.7519,-3.31899 2.2119,-8.16767 4.9897,-10.55386 z"
     id="path5"
     style="display:block;stroke-width:0.130788"
     sodipodi:nodetypes="cccccccccc" />
  <path
     fill="#ffffff"
     d="m 1435.5456,86.547235 c 1.2427,-2.400746 3.1387,-4.412942 5.3996,-6.10621 1.2052,-0.902442 4.5911,-3.348878 6.1114,-2.771532 0.5751,0.878119 -0.3422,4.305895 -0.5434,5.496763 -0.022,0.366088 -0.028,0.697359 0.1965,1.009859 0.5941,0.822433 -0.1705,2.881177 0.7197,3.362959 1.3312,-0.103098 1.1811,-0.564138 2.0666,-0.86553 -0.1382,2.360754 -1.0784,10.335803 0.5516,11.912513 0.2283,0.22064 0.4938,0.383252 0.7763,0.543765 -0.404,0.213107 -0.7425,0.304104 -1.2271,0.227181 -0.2847,-0.03505 -0.5665,-0.08704 -0.8436,-0.155692 -0.8976,-0.225704 -1.0447,-0.5124 -1.4822,-1.220255 -0.5149,0.414366 -0.7852,1.881805 -2.436,1.277787 -1.8085,0.246941 -3.1781,0.07172 -4.9294,-0.229281 -6.1686,-2.777583 -6.771,-6.245117 -4.5943,-11.857071 z"
     id="path6"
     style="display:block;stroke-width:0.130788"
     sodipodi:nodetypes="cccccccccccccccc" />
  <path
     fill="#0f192d"
     d="m 1446.5814,82.257575 c -0.022,0.42243 -0.031,0.804687 0.2045,1.165284 0.6182,0.949009 -0.1775,3.324598 0.7489,3.880527 1.3854,-0.118965 1.2293,-0.650954 2.1506,-0.998731 -0.1439,2.724075 -1.1222,11.926532 0.5741,13.745905 0.2375,0.2546 0.5138,0.44223 0.8079,0.62745 -0.4206,0.24591 -0.7727,0.35092 -1.277,0.26215 -0.2965,-0.0405 -0.5897,-0.10044 -0.8778,-0.17966 -0.9341,-0.26043 -1.0872,-0.59126 -1.5425,-1.408056 -0.5359,0.478142 -0.8172,2.171426 -2.5351,1.474446 0.806,-1.913689 0.7589,-3.495274 0.7974,-5.518814 0.083,-4.341712 0.092,-8.776745 0.949,-13.050501 z"
     id="path7"
     style="display:block;stroke-width:0.14332"
     sodipodi:nodetypes="cccccccccccc" />
  <path
     fill="#ffffff"
     d="m 1582.4231,54.06202 c -1.0376,-1.462008 -2.2124,-2.204434 -3.9331,-4.13958 -2.4078,-2.708314 -11.4518,-11.086005 -11.7662,-14.139173 -0.18,-1.759695 9.7823,-1.485716 11.3546,-0.894787 1.5144,0.569443 2.9705,0.288919 4.4252,2.254069 1.823,4.654203 2.1889,9.409652 0.8325,14.227948 l -0.1343,0.706126 c -0.2328,0.652291 -0.5209,1.337057 -0.7787,1.985397 z"
     id="path9"
     style="display:block;stroke-width:0.130788"
     sodipodi:nodetypes="cccccccc" />
  <path
     fill="#0f192d"
     d="m 1577.5286,31.246853 c 2.1861,-0.02124 4.8891,0.558826 6.442,1.946877 2.606,2.330128 4.5858,7.71194 4.5373,10.946112 -0.059,4.018457 -1.7941,9.574486 -3.2184,13.463792 -0.1468,-0.204836 -0.1315,-0.141248 -0.4959,-0.213232 l -0.1899,0.177303 c -0.1744,-0.513512 -0.119,-1.987374 -0.119,-2.599168 -0.1497,-0.678961 -0.1303,-1.668327 -0.1441,-2.382849 -0.3616,-0.2136 -0.7426,-0.350285 -1.1388,-0.509065 l 0.1343,-0.706126 c 1.3564,-4.818296 0.9905,-9.573745 -0.8325,-14.227948 0.64,0.08211 0.7632,0.40671 1.3313,0.314355 l 0.093,-0.231755 c -0.7689,-4.144765 -3.8846,-3.85288 -6.3991,-5.978296 z"
     id="path10"
     style="display:block;stroke-width:0.130788"
     sodipodi:nodetypes="cccccccccccccc" />
  <path
     fill="#0f192d"
     d="m 1583.3361,51.370497 c 1.229,0.115814 0.8909,-0.650935 1.2622,-0.299785 -0.071,0.440911 -0.2148,1.105428 -0.2577,1.514976 -0.3616,-0.2136 -0.7426,-0.350285 -1.1388,-0.509065 z"
     id="path11"
     style="display:block;stroke-width:0.130788"
     sodipodi:nodetypes="ccccc" />
  <path
     fill="#0f192d"
     d="m 1584.4847,54.968537 c 0.016,-0.340777 -0.01,-0.985908 0.1773,-1.243221 0.2576,1.217046 0.051,2.515828 0.1316,3.665086 l -0.1899,0.177303 c -0.1744,-0.513512 -0.119,-1.987374 -0.119,-2.599168 z"
     id="path12"
     style="display:block;stroke-width:0.130788"
     sodipodi:nodetypes="ccccc" />
  <path
     fill="#0f192d"
     d="m 1586.2316,44.756699 0.1954,0.224222 c 0.1122,1.140123 0.038,1.846743 -0.2161,2.968221 l -0.2343,-0.207059 c -0.1204,-0.601546 0.1622,-2.246044 0.255,-2.985384 z"
     id="path13"
     style="display:block;stroke-width:0.130788"
     sodipodi:nodetypes="ccccc" />
  <path
     fill="#0f192d"
     d="m 1585.956,38.228961 0.1052,0.131621 c 0.085,0.465358 -0.1343,1.138515 -0.2535,1.623754 l -0.169,-0.188292 c -0.1357,-0.645871 -0.072,-1.013194 0.3173,-1.567083 z"
     id="path14"
     style="display:block;stroke-width:0.130788"
     sodipodi:nodetypes="ccccc" />
  <path
     fill="#0f192d"
     d="m 1497.63,132.74441 c 0.7851,-0.75366 4.2078,-1.91921 5.3959,-1.62573 -1.775,1.08568 -3.5871,2.07047 -4.7792,3.69646 l -0.064,0.0851 c -0.084,4.03649 1.9706,8.14435 2.2149,12.17071 0.058,0.95195 0.2167,3.5547 -1.387,3.49667 -1.2403,-0.68155 -2.2927,-4.21156 -2.7287,-5.49812 -0.4654,-1.69525 -1.0216,-4.84621 -1.7766,-6.31736 l -0.2868,-0.35089 c -0.552,-0.49549 -0.8131,-0.56748 -1.526,-0.83923 0.2316,-0.35004 0.023,-0.28177 0.086,-0.59488 0.039,-0.19458 4.6689,-3.20368 4.851,-4.22268 z"
     id="path15"
     style="display:block;stroke-width:0.130788"
     sodipodi:nodetypes="ccccsccccccc" />
  <path
     fill="#0f192d"
     d="m 1494.8661,136.86968 c 0.4424,-0.12273 0.4704,-0.14669 0.9007,-0.0444 1.2566,0.90626 1.3707,6.64404 0.9098,7.87011 -0.1134,0.10866 -0.2773,0.27781 -0.3944,0.37411 -0.4652,-1.69525 -1.0215,-4.84621 -1.7765,-6.31735 l -0.2867,-0.3509 c 0.1262,-0.47067 0.2637,-1.25224 0.6471,-1.53152 z"
     id="path16"
     style="display:block;stroke-width:0.130788"
     sodipodi:nodetypes="ccccccc" />
  <path
     fill="#0f192d"
     d="m 1494.8661,136.86968 0.3068,0.12853 c 0.061,0.66673 0.016,0.96429 -0.3106,1.5893 l -0.3566,0.16459 -0.2867,-0.3509 c 0.1262,-0.47067 0.2637,-1.25224 0.6471,-1.53152 z"
     id="path17"
     style="display:block;stroke-width:0.130788"
     sodipodi:nodetypes="cccccc" />
  <path
     fill="#0f192d"
     d="m 1567.4706,124.86726 c 0.8922,-0.30508 0.9407,-0.37102 1.7858,-0.12273 -2.7778,2.38619 -3.2378,7.23487 -4.9897,10.55386 -0.6473,-0.66538 -0.4766,-3.28554 -1.5384,-3.23812 -0.8509,0.72464 -0.7992,2.39964 -2.4352,2.87982 0.7659,-2.31013 2.2967,-4.87226 2.6799,-7.16029 0.2994,-1.78771 -5.1945,-1.02888 -6.1943,-0.92763 0.9627,-0.97504 1.6383,-0.92171 3.0286,-1.01048 2.9973,-0.35658 4.53,-0.32929 7.6633,-0.97443 z"
     id="path18"
     style="display:block;stroke-width:0.130788"
     sodipodi:nodetypes="cccccsccc" />
  <path
     fill="#0f192d"
     d="m 1567.4706,124.86726 0.027,0.23497 c -0.7716,0.47264 -6.0824,1.04085 -7.101,0.8733 -0.2001,-0.0314 -0.3974,-0.076 -0.5899,-0.13384 2.9972,-0.35658 4.5299,-0.32929 7.6632,-0.97443 z"
     id="path19"
     style="display:block;stroke-width:0.130788"
     sodipodi:nodetypes="ccccc" />
  <path
     fill="#0f192d"
     d="m 1433.3262,87.309045 0.1305,0.192617 c 0.7937,-0.08028 1.403,-0.420916 1.8546,-0.329171 -2.1767,5.611954 -1.5743,9.079488 4.5943,11.857071 -1.1315,0.51586 -4.2323,-0.78157 -5.1644,-1.425955 -0.7955,-0.46314 -1.8645,-1.410151 -2.5914,-1.6145 0.2791,0.964672 0.534,1.052587 0.077,1.883787 -2.1257,-3.05971 -2.2036,-5.71629 -1.3254,-9.101347 l 0.1139,0.251263 c 0.9967,0.252005 0.6687,-1.06419 2.3111,-1.713765 z"
     id="path20"
     style="display:block;stroke-width:0.130788"
     sodipodi:nodetypes="cccccccccc" />
  <path
     fill="#0f192d"
     d="m 1432.1498,95.989107 c -0.5015,-0.07064 -0.6316,-0.249032 -0.7052,-0.707603 l 0.1773,-0.09643 c 1.0368,0.398318 2.3676,1.294213 3.063,2.087136 l 0.056,0.331397 c -0.7955,-0.46314 -1.8645,-1.410151 -2.5914,-1.6145 z"
     id="path21"
     style="display:block;stroke-width:0.130788"
     sodipodi:nodetypes="cccccc" />
  <path
     fill="#0f192d"
     d="m 1537.0541,148.84151 c 0.01,0.0272 0.011,0.0532 0.016,0.0802 1.9365,2.73856 4.7941,-4.63135 5.1578,-5.20303 0.2978,0.006 0.4045,-0.0803 0.6642,-0.21486 l 0.1002,-0.0518 c -0.6934,2.63363 -3.1884,11.01848 -5.4684,12.40875 -2.528,0.38152 -0.9184,-5.82162 -0.47,-7.01927 z"
     id="path22"
     style="display:block;stroke-width:0.130788"
     sodipodi:nodetypes="ccccccc" />
  <path
     fill="#0f192d"
     d="m 1433.3262,87.309045 c 0.6368,-0.268179 1.5497,-0.716496 2.2194,-0.76181 l -0.2343,0.625256 c -0.4516,-0.09174 -1.0609,0.248915 -1.8546,0.329171 z"
     id="path24"
     style="display:block;stroke-width:0.130788"
     sodipodi:nodetypes="ccccc" />
  <path
     fill="#ffffff"
     d="m 1517.1165,23.644972 c 15.8856,-3.713405 40.8358,43.706137 46.1389,50.450193 0.4512,1.145061 3.505,-0.829665 4.0426,0.192912 -0.1427,1.113824 -0.1926,1.676971 -0.5957,2.745479 -1.1781,3.114779 -11.9636,11.760157 -11.3142,14.533907 0.2473,0.153592 0.276,0.179155 0.5746,0.125444 1.4152,-0.254601 9.7411,-6.320307 11.1372,-7.523279 0.032,4.920652 0.5915,32.962302 -1.6544,35.125732 -2.3681,2.28161 -13.0211,3.72844 -16.8552,4.6184 -0.01,-1.85686 0.4416,-9.63201 -0.7172,-10.71188 -0.364,-0.33918 -0.9489,-0.47302 -1.4608,-0.45042 -0.4308,0.0189 -0.9943,0.14865 -1.2859,0.45437 -1.6357,1.71339 0.1086,8.10865 -1.2832,9.67104 -0.7158,0.80379 -1.9939,1.08419 -3.0722,1.2389 -5.1903,0.7449 -17.7473,0.96208 -22.7585,-0.016 2.6782,-4.13464 13.959,-11.54114 18.2694,-14.50096 -0.095,-0.61106 0.6875,0.45996 0.7167,-0.31865 -2.2435,-0.84008 -1.3595,-2.33139 -3.4879,-2.27829 -4.5648,3.28517 -18.2812,14.05214 -23.5524,15.71577 -2.1802,0.70044 -4.5094,0.95516 -6.8151,0.74551 -1.0496,-0.0936 -2.0839,-0.29287 -3.083,-0.59414 -1.5337,0.7675 -6.034,-1.28223 -6.8431,-2.89142 -0.1717,-0.25348 -0.3456,-0.50573 -0.522,-0.75674 l -0.2445,-0.0373 c -0.126,0.75144 -0.2773,1.73808 -1.2739,1.92489 -0.1697,-0.21274 -0.1816,-0.26411 -0.2906,-0.50005 -0.8648,-0.10409 -3.1831,0.2257 -3.6581,-0.13162 -3.7628,-0.14866 -8.8623,-1.34706 -11.9769,-3.32467 -1.1136,-0.707 -1.5242,-2.67758 -1.731,-3.84486 -0.9289,-5.24279 -0.8649,-9.28652 -1.1855,-14.590419 2.2097,-1.170994 12.1255,-4.74733 8.2785,-8.019786 -0.6472,-1.819115 -6.5136,2.237402 -8.0816,2.301359 0,-0.350905 -0.061,-0.701188 -0.111,-1.050486 -0.072,-0.450291 -0.1342,-0.905032 -0.1591,-1.35953 -0.29,-5.284389 1.49,-22.937394 5.1852,-26.484936 2.1429,-2.057134 1.4549,-2.838068 4.4966,-2.95129 -0.01,-0.01864 -7.4675,-1.112212 -0.732,-1.971302 -6.4168,0.233482 -0.9161,-0.524783 -2.3256,-1.652312 -0.1781,-0.437577 -0.1156,-0.317566 0.014,-0.850215 -0.5034,-0.637599 -0.4184,-3.15577 -0.4283,-4.090562 0,-0.452765 -0.098,-0.673158 -0.2396,-1.097771 -0.2805,0.0048 -0.6342,-0.04964 -0.9205,-0.08471 -1.1011,2.233079 -1.6987,4.446527 -2.6864,6.678371 -0.7552,1.447316 -3.0282,2.534965 -4.6181,3.091444 -4.3167,1.510903 -8.7499,3.126014 -13.1459,4.409732 0,-1.198647 -0.01,-3.148857 0.3317,-4.282682 1.235,-4.111182 5.2202,-9.037514 8.1842,-12.27922 6.0768,-6.592436 13.1266,-12.871504 21.4845,-17.126406 0.9418,-0.479435 4.2394,-2.231721 5.1386,-1.568071 0.083,1.370643 -4.8055,5.016486 -3.8232,6.324774 2.1998,0.57426 8.5106,-6.002394 10.6701,-7.221535 2.4159,-1.363727 3.186,-1.98293 6.0808,-2.802808 0.8251,-0.298995 1.6897,-1.272853 2.8384,-0.602312 0.6146,0.766477 0.2644,1.315264 0.101,2.171408 l 0.2434,0.142977 c 1.3892,-1.821814 6.5346,-5.419335 9.0067,-4.696073 z"
     id="path25"
     style="display:block;stroke-width:0.130788"
     sodipodi:nodetypes="sccccscccsccccccccccccccccccccccccsccccccccccccscccccccss" />
  <rect
     style="display:block;fill:#ffffff;stroke:#ffffff;stroke-width:0.0771509;stroke-dasharray:none"
     id="rect2-9-8-5-1-1"
     width="4.1942067"
     height="4.82233"
     x="1527.6023"
     y="59.629009"
     inkscape:highlight-color="#ffffff" />
  <rect
     style="display:block;fill:#ffffff;stroke:#ffffff;stroke-width:0.124291;stroke-dasharray:none"
     id="rect2-9-1"
     width="2.9281309"
     height="17.92728"
     x="1508.1318"
     y="-72.239532"
     transform="scale(1,-1)" />
  <rect
     style="display:block;fill:#ffffff;stroke:#ffffff;stroke-width:0.0621218;stroke-dasharray:none"
     id="rect2-1-1-6"
     width="5.6704946"
     height="2.3125842"
     x="1539.6583"
     y="-49.260159"
     transform="scale(1,-1)" />
  <rect
     style="display:block;fill:#ffffff;stroke:#ffffff;stroke-width:0.0731968;stroke-dasharray:none"
     id="rect2-1-1-6-4"
     width="2.4941123"
     height="7.2996325"
     x="1553.7535"
     y="-64.739449"
     transform="scale(1,-1)" />
  <path
     fill="#0f192d"
     d="m 1562.2723,75.058864 c -16.0914,3.384226 -46.1347,10.881127 -52.2716,9.043095 19.9891,-9.211248 53.6913,-16.090032 61.6719,-15.713871 1.7857,1.124379 -1.0289,4.651458 -9.4003,6.670776 z"
     id="path23-9"
     style="display:block;stroke-width:0.96187"
     sodipodi:nodetypes="cccc" />
  <path
     fill="#ffffff"
     d="m 1516.6298,24.553653 c 0.1601,1.745551 -2.908,-0.413444 -0.9386,-0.565986 0.3895,0.05317 0.6217,0.386049 0.9386,0.565986 z"
     id="path26"
     style="display:block;stroke-width:0.130788" />
  <rect
     style="display:block;fill:#ffffff;stroke:#ffffff;stroke-width:0.106068;stroke-dasharray:none"
     id="rect2-9-8-5-1-7"
     width="13.902476"
     height="2.7498636"
     x="1495.1456"
     y="49.326981"
     inkscape:highlight-color="#ffffff" />
  <path
     fill="#ffffff"
     d="m 1504.4401,27.537654 c 0.5163,0.06409 0.9173,0.06024 1.3145,0.340814 0.6356,1.214946 -1.6869,3.118359 -2.3914,4.306265 -0.3866,0.446591 -1.1151,1.576095 -1.3423,2.10183 -1.3829,2.478908 -2.5526,5.04795 -3.4987,7.684776 -0.5353,0.293365 -2.616,0.259657 -3.3682,0.446591 -8.9888,2.234315 -11.0928,9.135672 -9.0735,16.308665 -1.7913,0.233482 -6.2723,0.838238 -7.6818,-0.289292 -0.1781,-0.437576 -0.1157,-0.317564 0.014,-0.850213 -0.5035,-0.637598 -0.4182,-3.155772 -0.4283,-4.090563 0,-0.452765 -0.098,-0.673158 -0.2395,-1.097771 -0.2804,0.0048 -0.6343,-0.04963 -0.9206,-0.0847 -1.1012,2.23308 -1.6987,4.446526 -2.6864,6.678371 -0.7551,1.447316 -3.0281,2.534965 -4.6181,3.091444 -4.3167,1.510904 -8.7499,3.126015 -13.1458,4.409733 0,-1.198648 -0.01,-3.148857 0.3316,-4.282683 1.235,-4.111181 5.2203,-9.037513 8.1841,-12.279219 6.077,-6.592436 13.1267,-12.871505 21.4846,-17.126406 0.9418,-0.479436 4.2393,-2.231722 5.1386,-1.568071 0.083,1.370641 -2.8579,3.426295 -1.8755,4.734582 2.1997,0.57426 6.5629,-4.412201 8.7224,-5.631344 2.4158,-1.363726 3.1861,-1.98293 6.0809,-2.802808 z"
     id="path27"
     style="display:block;stroke-width:0.130788"
     sodipodi:nodetypes="sccccccccccccccccscccss" />
  <path
     fill="#0f192d"
     d="m 1479.0972,47.381325 c 0.5576,-1.025019 2.7409,-5.623099 4.2306,-4.339434 1.1635,2.554033 -4.0953,12.216827 -5.0541,15.131903 -0.3528,1.072626 -1.1627,2.54951 -1.529,3.701394 -0.438,-0.686714 -0.3638,-3.398862 -0.3726,-4.405661 0,-0.487642 -0.085,-0.725011 -0.2083,-1.182331 -0.244,0.0052 -0.5519,-0.05346 -0.8008,-0.09123 0.6711,-2.228894 2.1098,-5.381477 3.0805,-7.531113 0.1074,-0.273541 0.501,-0.990573 0.6537,-1.283532 z"
     id="path28"
     style="display:block;stroke-width:0.126587"
     sodipodi:nodetypes="ccccccccc" />
  <path
     fill="#0f192d"
     d="m 1527.8599,54.401383 4.1315,0.07837 -0.025,7.6274 c -1.2055,0.0779 -3.221,-0.129214 -4.4884,-0.176794 0.41,-2.876546 0.3727,-4.595286 0.382,-7.528973 z"
     id="path37"
     style="display:block;fill:#ffffff;stroke-width:0.179758"
     sodipodi:nodetypes="ccccc" />
  <path
     fill="#ffffff"
     d="m 1537.729,57.634996 c -0.1198,-1.204696 -0.2016,-8.984791 0.2549,-9.524479 0.7843,2.25444 1.6862,4.848915 1.9156,7.182254 0.01,1.181607 0.3811,2.385934 -1.5322,2.35951 -0.213,-0.0027 -0.4257,-0.0085 -0.6383,-0.01728 z"
     id="path38"
     style="display:block;stroke-width:0.138314"
     sodipodi:nodetypes="ccccc" />
  <path
     fill="#0f192d"
     d="m 1508.597,27.355413 c 1.3891,-1.868239 6.5344,-5.557432 9.0065,-4.815739 -6.461,3.480821 -10.9038,12.141756 -13.6604,18.187052 -1.0222,-0.139909 -3.8407,-0.116993 -4.447,-0.325529 0.9461,-2.70402 2.1158,-5.338522 3.4987,-7.8806 0.2271,-0.539133 0.9556,-1.697419 1.3421,-2.155389 0.7047,-1.218175 3.0271,-3.170092 2.3915,-4.415997 -0.3971,-0.287723 -0.7982,-0.283772 -1.3144,-0.349499 0.8249,-0.306614 1.6897,-1.305288 2.8382,-0.61766 0.6148,0.786009 0.2644,1.348781 0.1012,2.226741 z"
     id="path39"
     style="display:block;stroke-width:0.132443"
     sodipodi:nodetypes="ccccccccccc" />
  <path
     fill="#FFFFFF"
     d="m 1503.3632,32.184733 c 0.8047,0.387448 2.3373,-0.445109 2.2655,0.473261 -0.086,1.097277 -1.9049,4.135628 -3.026,4.483321 l -0.1545,-0.112111 c 0.1951,-0.672048 1.3413,-1.380643 1.685,-1.90218 0.3561,-0.540552 1.1471,-1.995399 0.8296,-2.593118 -1.2654,0.126063 -1.8715,1.967495 -2.4253,2.889446 -0.3536,-0.296945 -0.1032,-0.71983 -0.5166,-1.136789 0.2272,-0.525735 0.9557,-1.655239 1.3423,-2.10183 z"
     id="path40"
     style="display:block;fill:#0f192d;fill-opacity:1;stroke-width:0.130788"
     sodipodi:nodetypes="csccccccc" />
  <path
     fill="#FFFFFF"
     d="m 1544.8393,91.019967 c 0.5831,-0.250861 1.5289,-0.900238 2.0534,-1.840176 0.4588,-1.540106 -9.3122,-41.178548 -6.1739,-12.564246 0.7442,4.674866 2.3749,11.763117 2.6742,12.85496 1.4147,-9.409257 -1.6307,2.873137 1.4463,1.549462 z"
     id="path42"
     style="display:block;fill:#0f192d;fill-opacity:1;stroke-width:0.0842345"
     sodipodi:nodetypes="scccs" />
  <path
     fill="#FFFFFF"
     d="m 1542.4423,54.917296 c 0.6975,0.703163 1.1335,1.340762 1.9744,1.893168 0.2312,0.293611 0.2087,0.146434 0.1561,0.439305 -0.6071,-0.0052 -2.1375,-1.301991 -2.3043,-1.870693 -0.058,-0.197552 0.069,-0.292379 0.1738,-0.46178 z"
     id="path43"
     style="display:block;fill:#0f192d;fill-opacity:1;stroke-width:0.130788"
     sodipodi:nodetypes="ccccc" />
  <path
     fill="#FFFFFF"
     d="m 1490.8358,122.2252 c -0.3134,-7.61699 -1.1076,-15.25682 -1.221,-22.883316 -0.014,-0.982703 -0.015,-2.073188 0.4803,-2.969336 0.509,-0.353121 1.1907,-0.41733 1.8156,-0.347318 0.5596,0.06262 1.1811,0.272 1.5326,0.684392 2.4339,2.854262 0.1012,21.652448 2.6739,25.537798 0.7987,1.2063 2.3404,1.8444 3.6995,2.43903 -1.5337,0.76749 -6.0339,-1.28224 -6.8431,-2.89142 -0.1716,-0.25349 -0.3456,-0.50573 -0.522,-0.75675 l -0.2445,-0.0373 c -0.1259,0.75144 -0.2773,1.73809 -1.2738,1.9249 -0.1697,-0.21274 -0.1817,-0.2641 -0.2906,-0.50006 -0.8649,-0.10408 -3.1831,0.2257 -3.6582,-0.13162 1.1128,-0.0144 2.8033,0.0193 3.8513,-0.069 z"
     id="path45"
     style="display:block;fill:#0f192d;fill-opacity:1;stroke-width:0.130788"
     inkscape:transform-center-x="1.9476639"
     inkscape:transform-center-y="10.904173"
     sodipodi:nodetypes="cccccscccccccc" />
  <path
     fill="#FFFFFF"
     d="m 1491.9637,120.09231 -0.3325,0.0426 c -0.3153,-0.29299 -0.2637,-0.16026 -0.2924,-0.50943 0.7383,-0.24151 1.1889,0.23459 1.4432,0.79909 l -0.052,0.46178 c -0.1717,-0.25348 -0.3457,-0.50573 -0.522,-0.75674 z"
     id="path46"
     style="display:block;fill:#0f192d;fill-opacity:1;stroke-width:0.130788"
     sodipodi:nodetypes="ccccccc" />
  <path
     fill="#e68236"
     d="m 1491.7567,75.015133 c 5.1444,-0.453012 9.7304,2.889076 10.2536,7.472655 0.5233,4.583452 -3.2133,8.680312 -8.3548,9.159994 -5.1626,0.481773 -9.7825,-2.865242 -10.308,-7.467711 -0.5255,-4.602472 3.2435,-8.710074 8.4092,-9.164938 z"
     id="path51"
     style="display:block;stroke-width:0.130788"
     sodipodi:nodetypes="cscsc" />
  <path
     fill="#e68236"
     d="m 1544.2332,92.701719 c 4.935,-0.673901 9.5435,2.358893 10.2733,6.760725 0.7296,4.401836 -2.698,8.492636 -7.6409,9.119376 -4.9058,0.62204 -9.4537,-2.40459 -10.1779,-6.7732 -0.7241,-4.368743 2.6475,-8.438187 7.5455,-9.106901 z"
     id="path52"
     style="display:block;stroke-width:0.130788"
     sodipodi:nodetypes="cscsc" />
  <path
     fill="#e68236"
     d="m 1508.214,105.84653 c 2.6008,-0.34969 5.0295,1.22407 5.414,3.50823 0.3846,2.28416 -1.4218,4.40694 -4.0268,4.73215 -2.5852,0.32279 -4.982,-1.24776 -5.3636,-3.51469 -0.3817,-2.267 1.3952,-4.37869 3.9764,-4.72569 z"
     id="path52-1"
     style="display:block;stroke-width:0.0683942"
     sodipodi:nodetypes="cscsc" />
  <path
     fill="#ffffff"
     d="m 1531.5189,27.047058 c 1.2269,-0.611547 10.8044,3.88427 11.7545,4.629414 11.0297,3.741264 16.2399,7.644918 23.1586,16.037054 -22.8044,34.62174 6.53,7.696256 7.6533,10.08081 1.7485,2.547434 -1.377,7.799726 -3.7293,9.48065 -26.7805,10.146848 -24.4786,-4.283262 -24.3665,-3.530218 0.1161,0.780083 -23.5053,-17.902547 -30.8528,-39.508717 10.7229,8.645297 20.8412,11.779325 31.882,16.295619 4.7957,-3.027915 -15.4998,-12.26249 -15.4998,-13.484612 z"
     id="path53"
     style="display:block;stroke-width:0.130788"
     sodipodi:nodetypes="ccccccccc" />
  <path
     id="path55"
     style="display:block;fill:#ffffff;fill-opacity:1;stroke-width:0.140888"
     d="m 1563.9085,46.541589 c -27.9025,5.047322 -53.703,29.803344 -0.3212,0.04002 0.1671,0.04232 0.3178,0.09391 0.4509,0.150364 -0.041,-0.05938 -0.085,-0.122974 -0.1297,-0.190387 z m 0.1297,0.190388 c 1.0436,1.480978 1.2256,0.519564 0,0 z"
     sodipodi:nodetypes="cccccc" />
  <path
     fill="#ffffff"
     d="m 1577.0978,73.111596 c 3.4107,0.631427 9.4441,3.701386 11.6816,6.226719 0.485,0.546477 0.7979,2.205421 0.8686,2.971801 0.3645,3.926717 0.298,7.998509 0.2716,11.944489 -0.088,4.991524 0.2964,10.765105 -0.6775,15.639825 -0.9227,4.61259 -11.3325,8.29854 -15.8517,9.4278 -1.4867,0.29819 -4.1216,0.82663 -3.8931,-1.35262 0.1001,-0.95529 0.521,-1.79092 0.7177,-2.7188 1.6764,-7.90097 1.1901,-16.347314 1.4006,-24.370028 0.097,-3.72323 -0.098,-7.181998 0.3727,-10.8761 0.1191,-1.081103 0.3768,-2.215547 0.7108,-3.255164 0.1413,-0.220764 0.2978,-0.688963 0.3976,-0.948867 1.3659,-1.346194 2.0532,-2.06627 4.0011,-2.689055 z"
     id="path62"
     style="display:block;stroke-width:0.130788"
     sodipodi:nodetypes="ccccccccccccc" />
  <path
     fill="#ffffff"
     d="m 1453.8069,114.70247 c 2.577,0.15064 6.5062,2.3005 8.8278,3.40382 2.1376,1.01579 6.4365,2.64905 7.896,4.18132 2.0268,2.12763 2.5137,6.91791 3.696,9.49213 1.065,2.31927 2.0549,2.78672 1.9287,5.33835 -0.7817,1.1058 -1.4056,1.44078 -2.7016,2.00751 -1.2236,0.50499 -5.7159,2.08048 -6.6755,1.4804 -4.176,-2.61028 -7.7034,-9.59967 -9.9652,-13.80605 -1.3706,-2.54904 -4.5739,-8.72909 -4.0101,-11.34567 0.077,-0.35967 0.6374,-0.60648 1.0039,-0.75181 z"
     id="path63"
     style="display:block;stroke-width:0.130788"
     sodipodi:nodetypes="cscccccccc" />
  <path
     fill="#ffffff"
     d="m 1448.9047,120.44371 c 0.9818,0.084 1.5094,0.68711 1.9229,1.42521 1.4411,2.57127 2.6481,5.25736 3.9799,7.87862 1.9794,3.8245 4.1181,7.58181 6.4113,11.26468 l -0.08,-0.01 c -1.5459,-0.16915 -2.9232,-0.15186 -4.4763,-0.16915 -0.8012,-0.0519 -1.5955,-0.1062 -2.3877,-0.21484 -6.6544,-0.92109 -10.9048,-6.45589 -9.5544,-12.31565 0.5648,-2.45052 1.8154,-6.36908 4.1839,-7.859 z"
     id="path64"
     style="display:block;stroke-width:0.130788"
     sodipodi:nodetypes="cccccccccc" />
  <path
     fill="#ffffff"
     d="m 1466.5696,101.39636 c 0.235,-0.0464 0.219,-0.0193 0.4757,0.0138 0.3534,0.64081 0.6928,5.63554 0.877,6.61663 0.2113,1.12568 1.1232,6.17351 0.6523,6.95631 -2.2098,1.60115 -9.7009,-2.16257 -11.7232,-3.3064 -7.7641,-4.73928 -10.2654,-7.02581 0.6489,-8.78119 3.0849,-0.4961 5.8626,-1.15544 9.0693,-1.49918 z"
     id="path65"
     style="display:block;stroke-width:0.130788"
     sodipodi:nodetypes="scccccss" />
  <path
     fill="#ffffff"
     d="m 1475.2172,123.70615 c 4.1526,-0.16408 9.0048,1.21471 13.025,2.15802 5.9802,1.40336 5.5877,4.72001 0.8965,7.50821 l -1.1257,0.57748 c -9.2576,4.71705 -8.2772,2.2332 -11.5981,-5.29292 -0.56,-1.2689 -1.6505,-3.67793 -1.1977,-4.95079 z"
     id="path66"
     style="display:block;stroke-width:0.130788"
     sodipodi:nodetypes="cccccc" />
  <path
     fill="#ffffff"
     d="m 1594.0203,84.801371 c 3.4413,2.115655 4.7534,3.288875 6.2177,6.870244 l 0.069,0.122975 c 2.0863,5.284633 2.0005,8.63339 -1.6695,13.30303 -0.5306,0.67414 -2.7625,3.61939 -3.7351,2.96822 -1.172,-2.29184 -0.8963,-19.550245 -0.881,-23.264469 z"
     id="path67"
     style="display:block;stroke-width:0.130788"
     sodipodi:nodetypes="cccccc" />
  <path
     fill="#ffffff"
     d="m 1476.7238,141.97652 c 0.3139,-0.0271 0.7178,-0.0852 1.0235,-0.009 1.7135,0.43585 9.1003,11.13948 10.2388,13.11747 0.2687,0.46671 0.6948,1.28037 0.4673,1.80514 -0.099,0.2284 -0.2498,0.34819 -0.5142,0.41486 -1.0393,0.26545 -2.9701,-0.9211 -3.8614,-1.40387 -3.5471,-2.09774 -11.0966,-7.5971 -13.673,-10.55546 1.39,-1.72857 4.0807,-2.76696 6.319,-3.3695 z"
     id="path69"
     style="display:block;stroke-width:0.130788"
     sodipodi:nodetypes="ccccccccc" />
  <path
     fill="#ffffff"
     d="m 1582.7558,64.757859 c 2.15,0.78601 5.6551,7.515005 0.048,6.163379 -1.6223,-0.607844 -2.7458,-1.470776 -3.7946,-2.708317 0.7218,-1.253096 2.3704,-2.749554 3.7462,-3.455062 z"
     id="path70"
     style="display:block;stroke-width:0.130788"
     sodipodi:nodetypes="cccc" />
  <path
     fill="#ffffff"
     d="m 1573.8881,54.449075 c -0.7884,1.609346 -8.3268,4.444746 -7.0722,0.275368 0.6118,-1.214842 1.5429,-2.073403 2.9079,-2.891599 1.4766,0.481244 3.2816,1.633555 4.1643,2.616231 z"
     id="path70-7"
     style="display:block;stroke-width:0.120218"
     sodipodi:nodetypes="cccc" />
  <path
     fill="#ffffff"
     d="m 1569.9408,69.871618 c 0.1912,-0.0096 0.3823,-0.01469 0.5734,-0.01506 0.5556,0.0011 1.0904,0.117542 1.4797,0.498447 0.2494,0.241261 0.3686,0.567593 0.3241,0.893307 -0.078,0.639821 -0.5665,1.068509 -1.0751,1.461266 -1.963,0.527589 -3.3692,-1.727097 -1.3021,-2.837958 z"
     id="path71"
     style="display:block;stroke-width:0.130788"
     sodipodi:nodetypes="cccccc" />
  <path
     fill="#FFFFFF"
     d="m 1474.3062,60.168248 2.7675,-1.524136 c -0.1792,0.356458 -0.9668,5.151126 -3.0463,8.011483 -1.2401,2.479895 -1.2589,4.994485 -2.5884,7.357579 l -0.2273,0.07285 -0.1803,-0.08606 c 1.622,-2.552374 2.7299,-10.257018 15.3913,-14.310082 -0.2096,-4.843634 -13.5848,1.078307 -12.1165,0.478366 z"
     id="path72"
     style="display:block;fill:#0f192d;fill-opacity:1;stroke-width:0.130788"
     sodipodi:nodetypes="cccccccc" />
  <path
     fill="#FFFFFF"
     d="m 1598.9123,84.277979 c 0.5084,0.335596 0.6081,0.767865 0.9031,1.260631 1.6251,2.709175 3.2335,5.264637 3.2378,8.43312 -0.4781,-0.332622 -0.3797,-1.691783 -0.5694,-2.34852 -0.8049,-2.790293 -2.4674,-4.640741 -3.5715,-7.345231 z"
     id="path73"
     style="display:block;fill:#0f192d;fill-opacity:1;stroke-width:0.130788"
     sodipodi:nodetypes="ccccc" />
  <path
     fill="#FFFFFF"
     d="m 1470.2627,109.81911 0.1401,0.0954 c 0.7467,1.31669 0.016,5.72729 1.865,7.03384 0.5893,0.41659 1.2634,0.78108 1.8789,1.22742 -3.7115,-0.16915 -3.7529,-6.08115 -3.884,-8.3567 z"
     id="path74"
     style="display:block;fill:#0f192d;fill-opacity:1;stroke-width:0.130788"
     sodipodi:nodetypes="ccccc" />
  <path
     fill="#FFFFFF"
     d="m 1602.3342,98.211815 c 0.9794,0.544756 0.9586,5.245135 0.554,5.860995 -0.094,-0.048 -0.075,-0.0727 -0.144,-0.19236 0.4669,-1.05764 -0.1302,-4.502209 -0.41,-5.668635 z"
     id="path77"
     style="display:block;fill:#0f192d;fill-opacity:1;stroke-width:0.130788"
     sodipodi:nodetypes="cccc" />
  <path
     fill="#FFFFFF"
     d="m 1471.9336,92.856673 c 0.05,0.3493 0.1134,0.699583 0.111,1.050488 -1.1696,0.06433 -3.4663,1.547326 -4.0139,1.367801 0.4437,-0.658099 2.9726,-1.236059 3.7787,-1.804765 0.1589,-0.112235 0.1092,-0.363988 0.1242,-0.613524 z"
     id="path78"
     style="display:block;fill:#0f192d;fill-opacity:1;stroke-width:0.130788"
     sodipodi:nodetypes="cccsc" />
  <path
     fill="#FFFFFF"
     d="m 1601.0084,92.269702 0.085,-0.442647 c 0.5376,1.048756 0.8118,1.905762 1.7402,2.663256 l -0.1053,0.151493 c -1.179,-0.246202 -1.1735,-1.612148 -1.7193,-2.372102 z"
     id="path80"
     style="display:block;fill:#0f192d;fill-opacity:1;stroke-width:0.130788"
     sodipodi:nodetypes="ccccc" />
  <path
     fill="#FFFFFF"
     d="m 1469.688,108.79554 c 0.2527,0.1189 0.155,0.0358 0.2973,0.26312 -0.2999,0.60228 -0.5818,1.21161 -0.8447,1.82736 l -0.124,0.0162 c -0.1276,-0.45795 0.3788,-1.71932 0.6714,-2.10665 z"
     id="path81"
     style="display:block;fill:#0f192d;fill-opacity:1;stroke-width:0.130788"
     sodipodi:nodetypes="ccccc" />
  <path
     fill="#FFFFFF"
     d="m 1545.7549,124.25164 c 0.6899,-0.0914 1.2127,-0.11198 1.8852,0.0433 l 0.041,0.15533 -0.3379,0.055 c -0.7057,0.002 -1.3491,-0.004 -2.0537,-0.0322 l -0.016,-0.099 z"
     id="path82"
     style="display:block;fill:#0f192d;fill-opacity:1;stroke-width:0.130788"
     sodipodi:nodetypes="ccccccc" />
  <path
     fill="#FFFFFF"
     d="m 1471.1044,70.318704 c 0.1813,0.902566 -0.073,1.559427 -0.3983,2.41816 -0.1813,-0.763168 0.1266,-1.6987 0.3983,-2.41816 z"
     id="path83"
     style="display:block;fill:#0f192d;fill-opacity:1;stroke-width:0.130788"
     sodipodi:nodetypes="ccc" />
  <path
     fill="#FFFFFF"
     d="m 1466.2929,99.975961 -0.094,0.509069 c -0.4233,0.38386 -0.4846,0.30225 -1.1483,0.47375 l -0.024,-0.12285 c 0.5556,-0.32029 0.7712,-0.46795 1.2661,-0.859969 z"
     id="path84"
     style="display:block;fill:#0f192d;fill-opacity:1;stroke-width:0.130788"
     sodipodi:nodetypes="ccccc" />
  <path
     fill="#e68236"
     d="m 1517.1258,135.82474 c 0.3287,-0.0242 0.6583,-0.0381 0.988,-0.0421 6.9759,-0.12495 10.0188,4.74311 11.6667,10.02517 0.3155,1.01121 0.2925,2.41012 0.3011,3.45716 l 1.8567,0.97294 c 0.117,6.76985 -0.2292,13.83358 -0.2139,20.63185 l -11.2915,0.23951 c -3.3334,0.0383 -10.9017,0.19511 -14.0058,-0.29631 -0.08,-0.22718 -0.1461,-0.45807 -0.1968,-0.69268 -1.0184,-4.77581 -0.3832,-20.06351 -0.083,-19.18848 -0.5768,-0.61737 -0.184,-0.88165 2.0433,-1.06566 0.229,-5.49812 1.8335,-12.95115 8.935,-14.04139 z"
     id="path85"
     style="display:block;stroke-width:0.130788"
     sodipodi:nodetypes="ccsccccccccc" />
  <path
     fill="#ffffff"
     d="m 1517.1327,139.90346 c 0.4212,-0.0333 0.8441,-0.0506 1.2669,-0.0494 3.1143,-0.008 5.1942,1.35569 6.4409,3.83375 1.0353,2.05578 0.8207,3.90535 0.7898,6.07596 l -5.0972,-9e-4 h -8.434 c -0.01,-1.14455 0.027,-2.37803 0.024,-3.51395 -0.012,-3.74361 0.7415,-5.43516 5.0101,-6.34513 z"
     id="path86"
     style="display:block;stroke-width:0.130788"
     sodipodi:nodetypes="ccccccscc" />
  <path
     fill="#ffffff"
     d="m 1518.271,156.18669 c 1.0213,-0.0938 1.9016,-0.0729 2.3888,0.84825 1.0222,1.93353 1.218,8.06752 -1.1877,9.1195 -2.0954,-0.17656 -2.7615,-1.61129 -3.0531,-3.28061 -0.3971,-2.27309 -0.8697,-5.4969 1.852,-6.68714 z"
     id="path87"
     style="display:block;stroke-width:0.130788"
     sodipodi:nodetypes="ccccc" />
  <rect
     style="display:block;fill:#ffffff;stroke:#ffffff;stroke-width:0.179149;stroke-dasharray:none"
     id="rect2"
     width="41.0938"
     height="2.6538796"
     x="1482.2804"
     y="-43.14278"
     transform="scale(1,-1)" />
  <rect
     style="display:block;fill:#ffffff;stroke:#ffffff;stroke-width:0.12526;stroke-dasharray:none"
     id="rect2-9"
     width="0"
     height="14.355559"
     x="1518.1501"
     y="-37.620438"
     transform="scale(1,-1)"
     ry="1.5350367" />
  <rect
     style="display:block;fill:#ffffff;stroke:#ffffff;stroke-width:0.0562087"
     id="rect41"
     width="5.9200702"
     height="2.3436849"
     x="1547.7062"
     y="65.51915" />
  <rect
     style="display:block;fill:#ffffff;stroke:#ffffff;stroke-width:0.056236"
     id="rect42-5"
     width="2.7551224"
     height="12.793487"
     x="1536.9669"
     y="49.64949"
     ry="0" />
  <text
     xml:space="preserve"
     style="font-size:106.667px;writing-mode:lr-tb;direction:ltr;white-space:pre;inline-size:0;display:block;fill:#ffffff;fill-opacity:1;stroke:#ffffff;stroke-width:0.912"
     x="493.83395"
     y="313.36307"
     id="text32"
     transform="matrix(0.145282,0,0,0.14364063,1382.8527,-19.382668)"><tspan
       id="tspan32"
       style="font-size:106.667px;stroke-width:0.912"
       x="493.83395"
       y="313.36307" /></text>
  <text
     xml:space="preserve"
     style="font-size:27.8708px;writing-mode:lr-tb;direction:ltr;display:block;fill:#ffffff;fill-opacity:1;stroke:#ffffff;stroke-width:0.148934"
     x="1505.4642"
     y="64.315872"
     id="text33"
     transform="scale(0.98664047,1.0135404)"><tspan
       id="tspan33"
       style="font-style:normal;font-variant:normal;font-weight:bold;font-stretch:normal;font-size:27.8708px;font-family:sans-serif;-inkscape-font-specification:'sans-serif Bold';fill:#e68236;stroke-width:0.148934"
       x="1505.4642"
       y="64.315872"
       sodipodi:role="line">GSIT</tspan></text>
</svg>
